<?xml version="1.0" encoding="UTF-8"?>
<!DOCTYPE svg PUBLIC "-//W3C//DTD SVG 1.1//EN" "http://www.w3.org/Graphics/SVG/1.1/DTD/svg11.dtd">
<svg xmlns="http://www.w3.org/2000/svg" version="1.1" width="240px" height="240px" style="shape-rendering:geometricPrecision; text-rendering:geometricPrecision; image-rendering:optimizeQuality; fill-rule:evenodd; clip-rule:evenodd" xmlns:xlink="http://www.w3.org/1999/xlink">
<g><path style="opacity:0.984" fill="#e5e1d4" d="M 122.5,63.5 C 122.5,65.5 122.5,67.5 122.5,69.5C 120.167,69.5 117.833,69.5 115.5,69.5C 115.5,67.5 115.5,65.5 115.5,63.5C 117.941,62.2437 120.274,62.2437 122.5,63.5 Z"/></g>
<g><path style="opacity:0.903" fill="#ae9689" d="M 124.5,63.5 C 138.994,62.3391 153.661,62.1724 168.5,63C 173.914,64.9171 176.914,68.7505 177.5,74.5C 177.167,74.5 176.833,74.5 176.5,74.5C 176.573,72.9731 175.906,71.9731 174.5,71.5C 173.833,68.8333 172.167,67.1667 169.5,66.5C 169.082,65.7784 168.416,65.2784 167.5,65C 154.171,64.5001 140.837,64.3334 127.5,64.5C 126.833,64.5 126.167,64.5 125.5,64.5C 125.5,63.8333 125.167,63.5 124.5,63.5 Z"/></g>
<g><path style="opacity:0.898" fill="#b49e90" d="M 114.5,63.5 C 113.833,63.5 113.167,63.5 112.5,63.5C 109.287,63.19 106.287,63.5233 103.5,64.5C 92.495,64.3335 81.495,64.5002 70.5,65C 69.0577,65.3768 68.0577,66.2101 67.5,67.5C 66.5,67.8333 65.8333,68.5 65.5,69.5C 64.8333,69.5 64.5,69.8333 64.5,70.5C 64.1667,70.5 63.8333,70.5 63.5,70.5C 63.1667,70.5 62.8333,70.5 62.5,70.5C 64.0592,65.864 67.3925,63.364 72.5,63C 86.6728,62.1727 100.673,62.3393 114.5,63.5 Z"/></g>
<g><path style="opacity:0.996" fill="#e1c87b" d="M 103.5,64.5 C 103.833,64.5 104.167,64.5 104.5,64.5C 102.052,65.4731 99.3854,65.8064 96.5,65.5C 96.5,66.5 96.5,67.5 96.5,68.5C 86.8009,68.7253 77.1343,68.392 67.5,67.5C 68.0577,66.2101 69.0577,65.3768 70.5,65C 81.495,64.5002 92.495,64.3335 103.5,64.5 Z"/></g>
<g><path style="opacity:0.996" fill="#e9d88c" d="M 127.5,64.5 C 140.837,64.3334 154.171,64.5001 167.5,65C 168.416,65.2784 169.082,65.7784 169.5,66.5C 167.989,67.5025 166.322,68.1692 164.5,68.5C 158.305,67.413 151.971,66.413 145.5,65.5C 140.167,65.5 134.833,65.5 129.5,65.5C 128.508,65.6716 127.842,65.3382 127.5,64.5 Z"/></g>
<g><path style="opacity:0.996" fill="#cd9a50" d="M 104.5,64.5 C 106.857,64.3367 109.19,64.5034 111.5,65C 109.866,65.4935 108.199,65.6602 106.5,65.5C 106.5,66.5 106.5,67.5 106.5,68.5C 103.167,68.5 99.8333,68.5 96.5,68.5C 96.5,67.5 96.5,66.5 96.5,65.5C 99.3854,65.8064 102.052,65.4731 104.5,64.5 Z"/></g>
<g><path style="opacity:0.996" fill="#a76d38" d="M 125.5,64.5 C 126.167,64.5 126.833,64.5 127.5,64.5C 127.842,65.3382 128.508,65.6716 129.5,65.5C 129.5,66.5 129.5,67.5 129.5,68.5C 134.5,68.5 139.5,68.5 144.5,68.5C 145.5,68.5 146.5,68.5 147.5,68.5C 147.5,68.8333 147.5,69.1667 147.5,69.5C 141.167,69.5 134.833,69.5 128.5,69.5C 127.047,68.1514 126.047,66.4847 125.5,64.5 Z"/></g>
<g><path style="opacity:0.996" fill="#d5a955" d="M 129.5,65.5 C 134.833,65.5 140.167,65.5 145.5,65.5C 144.89,66.391 144.557,67.391 144.5,68.5C 139.5,68.5 134.5,68.5 129.5,68.5C 129.5,67.5 129.5,66.5 129.5,65.5 Z"/></g>
<g><path style="opacity:0.996" fill="#e1c76f" d="M 145.5,65.5 C 151.971,66.413 158.305,67.413 164.5,68.5C 158.833,68.5 153.167,68.5 147.5,68.5C 146.5,68.5 145.5,68.5 144.5,68.5C 144.557,67.391 144.89,66.391 145.5,65.5 Z"/></g>
<g><path style="opacity:0.996" fill="#b58246" d="M 67.5,67.5 C 77.1343,68.392 86.8009,68.7253 96.5,68.5C 96.5,68.8333 96.5,69.1667 96.5,69.5C 88.5,69.5 80.5,69.5 72.5,69.5C 72.1667,69.5 71.8333,69.5 71.5,69.5C 69.5,70.8333 67.5,70.8333 65.5,69.5C 65.8333,68.5 66.5,67.8333 67.5,67.5 Z"/></g>
<g><path style="opacity:0.996" fill="#aa713a" d="M 103.5,64.5 C 106.287,63.5233 109.287,63.19 112.5,63.5C 112.918,64.2216 113.584,64.7216 114.5,65C 113.62,66.3561 113.286,67.8561 113.5,69.5C 111.599,69.2465 110.933,69.5798 111.5,70.5C 111.5,71.1667 111.167,71.5 110.5,71.5C 109.5,71.5 108.5,71.5 107.5,71.5C 106.833,71.5 106.167,71.5 105.5,71.5C 104.432,70.5655 103.099,70.2322 101.5,70.5C 100.081,69.5489 98.4147,69.2155 96.5,69.5C 96.5,69.1667 96.5,68.8333 96.5,68.5C 99.8333,68.5 103.167,68.5 106.5,68.5C 106.5,67.5 106.5,66.5 106.5,65.5C 108.199,65.6602 109.866,65.4935 111.5,65C 109.19,64.5034 106.857,64.3367 104.5,64.5C 104.167,64.5 103.833,64.5 103.5,64.5 Z"/></g>
<g><path style="opacity:0.996" fill="#b67d51" d="M 65.5,69.5 C 67.5,70.8333 69.5,70.8333 71.5,69.5C 70.8592,70.4822 70.1925,71.4822 69.5,72.5C 69.6236,73.1067 69.9569,73.44 70.5,73.5C 69.8166,75.1765 68.4832,75.8432 66.5,75.5C 65.8669,75.1205 65.2003,74.7871 64.5,74.5C 65.3629,73.2736 65.3629,71.9403 64.5,70.5C 64.5,69.8333 64.8333,69.5 65.5,69.5 Z"/></g>
<g><path style="opacity:0.996" fill="#633517" d="M 112.5,63.5 C 113.167,63.5 113.833,63.5 114.5,63.5C 114.833,63.5 115.167,63.5 115.5,63.5C 115.5,65.5 115.5,67.5 115.5,69.5C 115.599,72.2372 115.265,74.9039 114.5,77.5C 114.5,77.8333 114.5,78.1667 114.5,78.5C 114.5,78.8333 114.5,79.1667 114.5,79.5C 113.833,76.5 113.167,73.5 112.5,70.5C 112.167,70.5 111.833,70.5 111.5,70.5C 110.933,69.5798 111.599,69.2465 113.5,69.5C 113.286,67.8561 113.62,66.3561 114.5,65C 113.584,64.7216 112.918,64.2216 112.5,63.5 Z"/></g>
<g><path style="opacity:0.996" fill="#cda460" d="M 169.5,66.5 C 172.167,67.1667 173.833,68.8333 174.5,71.5C 173.5,72.5 172.5,73.5 171.5,74.5C 170.354,72.525 168.687,71.025 166.5,70C 160.175,69.5005 153.842,69.3338 147.5,69.5C 147.5,69.1667 147.5,68.8333 147.5,68.5C 153.167,68.5 158.833,68.5 164.5,68.5C 166.322,68.1692 167.989,67.5025 169.5,66.5 Z"/></g>
<g><path style="opacity:0.996" fill="#d6ad58" d="M 72.5,69.5 C 80.5,69.5 88.5,69.5 96.5,69.5C 98.4147,69.2155 100.081,69.5489 101.5,70.5C 100.833,70.5 100.167,70.5 99.5,70.5C 93.7776,70.7786 88.1109,71.4453 82.5,72.5C 78.9089,72.0554 75.5756,71.0554 72.5,69.5 Z"/></g>
<g><path style="opacity:0.996" fill="#c38f43" d="M 71.5,69.5 C 71.8333,69.5 72.1667,69.5 72.5,69.5C 75.5756,71.0554 78.9089,72.0554 82.5,72.5C 83.8333,73.1667 85.1667,73.8333 86.5,74.5C 81.1779,74.0199 75.8446,73.6865 70.5,73.5C 69.9569,73.44 69.6236,73.1067 69.5,72.5C 70.1925,71.4822 70.8592,70.4822 71.5,69.5 Z"/></g>
<g><path style="opacity:0.996" fill="#cf9947" d="M 99.5,70.5 C 100.684,71.6879 100.684,72.8545 99.5,74C 95.1794,74.499 90.8461,74.6657 86.5,74.5C 85.1667,73.8333 83.8333,73.1667 82.5,72.5C 88.1109,71.4453 93.7776,70.7786 99.5,70.5 Z"/></g>
<g><path style="opacity:0.996" fill="#c58a3f" d="M 99.5,70.5 C 100.167,70.5 100.833,70.5 101.5,70.5C 103.099,70.2322 104.432,70.5655 105.5,71.5C 103.879,71.7869 102.879,72.7869 102.5,74.5C 98.2172,75.4922 93.8839,75.8256 89.5,75.5C 88.209,75.7373 87.209,75.404 86.5,74.5C 90.8461,74.6657 95.1794,74.499 99.5,74C 100.684,72.8545 100.684,71.6879 99.5,70.5 Z"/></g>
<g><path style="opacity:0.996" fill="#c99141" d="M 135.5,70.5 C 137.167,70.5 138.833,70.5 140.5,70.5C 140.5,71.8333 140.5,73.1667 140.5,74.5C 144.466,75.1621 148.466,75.4955 152.5,75.5C 151.791,76.404 150.791,76.7373 149.5,76.5C 144.5,76.5 139.5,76.5 134.5,76.5C 134.325,74.3792 134.659,72.3792 135.5,70.5 Z"/></g>
<g><path style="opacity:0.996" fill="#debf62" d="M 128.5,70.5 C 128.5,70.1667 128.5,69.8333 128.5,69.5C 134.833,69.5 141.167,69.5 147.5,69.5C 153.842,69.3338 160.175,69.5005 166.5,70C 168.687,71.025 170.354,72.525 171.5,74.5C 171.5,75.1667 171.5,75.8333 171.5,76.5C 167.064,75.6151 162.731,74.6151 158.5,73.5C 156.833,73.5 155.167,73.5 153.5,73.5C 149.573,71.4373 145.239,70.4373 140.5,70.5C 138.833,70.5 137.167,70.5 135.5,70.5C 133.833,70.5 132.167,70.5 130.5,70.5C 129.833,70.5 129.167,70.5 128.5,70.5 Z"/></g>
<g><path style="opacity:0.996" fill="#ad6a2d" d="M 128.5,70.5 C 129.167,70.5 129.833,70.5 130.5,70.5C 130.5,72.8333 130.5,75.1667 130.5,77.5C 133.059,77.1984 135.393,77.5318 137.5,78.5C 135.283,79.3686 132.95,79.702 130.5,79.5C 129.883,79.3893 129.383,79.056 129,78.5C 128.503,75.854 128.336,73.1873 128.5,70.5 Z"/></g>
<g><path style="opacity:0.996" fill="#b87733" d="M 130.5,70.5 C 132.167,70.5 133.833,70.5 135.5,70.5C 134.659,72.3792 134.325,74.3792 134.5,76.5C 139.5,76.5 144.5,76.5 149.5,76.5C 145.733,77.7947 141.733,78.4613 137.5,78.5C 135.393,77.5318 133.059,77.1984 130.5,77.5C 130.5,75.1667 130.5,72.8333 130.5,70.5 Z"/></g>
<g><path style="opacity:0.996" fill="#d1a54b" d="M 140.5,70.5 C 145.239,70.4373 149.573,71.4373 153.5,73.5C 153.5,73.8333 153.5,74.1667 153.5,74.5C 152.833,74.5 152.5,74.8333 152.5,75.5C 148.466,75.4955 144.466,75.1621 140.5,74.5C 140.5,73.1667 140.5,71.8333 140.5,70.5 Z"/></g>
<g><path style="opacity:0.996" fill="#aa7032" d="M 70.5,73.5 C 75.8446,73.6865 81.1779,74.0199 86.5,74.5C 87.209,75.404 88.209,75.7373 89.5,75.5C 91.8333,76.1667 94.1667,76.8333 96.5,77.5C 94.8333,77.5 93.1667,77.5 91.5,77.5C 86.2861,76.0315 80.9528,75.3649 75.5,75.5C 74.1266,75.3433 72.7932,75.51 71.5,76C 70.1196,77.9252 68.6196,79.7585 67,81.5C 66.5045,79.5273 66.3379,77.5273 66.5,75.5C 68.4832,75.8432 69.8166,75.1765 70.5,73.5 Z"/></g>
<g><path style="opacity:0.996" fill="#be7f38" d="M 105.5,71.5 C 106.167,71.5 106.833,71.5 107.5,71.5C 107.5,73.5 107.5,75.5 107.5,77.5C 103.833,77.5 100.167,77.5 96.5,77.5C 94.1667,76.8333 91.8333,76.1667 89.5,75.5C 93.8839,75.8256 98.2172,75.4922 102.5,74.5C 102.879,72.7869 103.879,71.7869 105.5,71.5 Z"/></g>
<g><path style="opacity:0.996" fill="#6b432f" d="M 75.5,75.5 C 80.9528,75.3649 86.2861,76.0315 91.5,77.5C 92.2905,78.4013 93.2905,79.0679 94.5,79.5C 97.0791,81.0252 99.7458,82.3586 102.5,83.5C 101.167,83.5 99.8333,83.5 98.5,83.5C 96.064,82.129 93.3973,81.129 90.5,80.5C 88.8914,79.2291 87.0581,78.2291 85,77.5C 84.5357,78.0944 84.369,78.7611 84.5,79.5C 82.1432,79.3367 79.8098,79.5034 77.5,80C 76.7476,80.6708 76.4142,81.5041 76.5,82.5C 76.5,82.8333 76.5,83.1667 76.5,83.5C 75.5039,98.324 75.1706,113.324 75.5,128.5C 75.5,130.833 75.5,133.167 75.5,135.5C 75.5,138.833 75.5,142.167 75.5,145.5C 75.1667,145.5 74.8333,145.5 74.5,145.5C 74.5,140.5 74.5,135.5 74.5,130.5C 74.3334,113.83 74.5001,97.1633 75,80.5C 76.8873,78.114 79.3873,76.9473 82.5,77C 79.5024,76.1093 76.8357,76.6093 74.5,78.5C 74.5569,77.391 74.8902,76.391 75.5,75.5 Z"/></g>
<g><path style="opacity:0.996" fill="#8a7d7d" d="M 122.5,63.5 C 122.833,63.5 123.167,63.5 123.5,63.5C 123.5,65.8333 123.5,68.1667 123.5,70.5C 121.915,71.4737 120.915,72.9737 120.5,75C 120.833,75.3333 121.167,75.6667 121.5,76C 119.187,76.662 116.854,77.162 114.5,77.5C 115.265,74.9039 115.599,72.2372 115.5,69.5C 117.833,69.5 120.167,69.5 122.5,69.5C 122.5,67.5 122.5,65.5 122.5,63.5 Z"/></g>
<g><path style="opacity:0.996" fill="#b06e30" d="M 107.5,71.5 C 108.5,71.5 109.5,71.5 110.5,71.5C 110.708,73.9201 110.374,76.2534 109.5,78.5C 104.949,79.7185 100.616,79.3852 96.5,77.5C 100.167,77.5 103.833,77.5 107.5,77.5C 107.5,75.5 107.5,73.5 107.5,71.5 Z"/></g>
<g><path style="opacity:0.996" fill="#714436" d="M 153.5,73.5 C 155.167,73.5 156.833,73.5 158.5,73.5C 158.5,74.1667 158.833,74.5 159.5,74.5C 160.75,76.8229 162.083,79.1563 163.5,81.5C 162.637,80.537 161.97,80.537 161.5,81.5C 162.858,97.7757 163.524,114.109 163.5,130.5C 163.167,130.5 162.833,130.5 162.5,130.5C 162.813,126.958 162.479,123.625 161.5,120.5C 161.705,112.133 161.371,103.8 160.5,95.5C 160.666,90.8215 160.499,86.1548 160,81.5C 159.617,80.944 159.117,80.6107 158.5,80.5C 155.409,79.3792 152.409,79.7125 149.5,81.5C 146.461,82.01 143.461,82.6766 140.5,83.5C 140.5,83.1667 140.5,82.8333 140.5,82.5C 142.975,81.8686 145.309,80.8686 147.5,79.5C 150.795,79.2095 152.795,77.5428 153.5,74.5C 153.5,74.1667 153.5,73.8333 153.5,73.5 Z"/></g>
<g><path style="opacity:0.996" fill="#c79b53" d="M 173.5,107.5 C 173.167,107.5 172.833,107.5 172.5,107.5C 172.5,104.5 172.5,101.5 172.5,98.5C 172.5,94.5 172.5,90.5 172.5,86.5C 172.631,85.7611 172.464,85.0944 172,84.5C 170.989,85.3366 169.822,85.67 168.5,85.5C 167.39,82.0289 165.39,79.0289 162.5,76.5C 165.412,78.0663 168.079,80.0663 170.5,82.5C 171.466,80.604 171.799,78.604 171.5,76.5C 172.222,76.0825 172.722,75.4158 173,74.5C 173.5,85.495 173.667,96.495 173.5,107.5 Z"/></g>
<g><path style="opacity:0.996" fill="#d3ad53" d="M 158.5,73.5 C 162.731,74.6151 167.064,75.6151 171.5,76.5C 171.799,78.604 171.466,80.604 170.5,82.5C 168.079,80.0663 165.412,78.0663 162.5,76.5C 161.222,76.2178 160.222,75.5511 159.5,74.5C 158.833,74.5 158.5,74.1667 158.5,73.5 Z"/></g>
<g><path style="opacity:0.996" fill="#95592d" d="M 63.5,70.5 C 63.8333,70.5 64.1667,70.5 64.5,70.5C 65.3629,71.9403 65.3629,73.2736 64.5,74.5C 65.2003,74.7871 65.8669,75.1205 66.5,75.5C 66.3379,77.5273 66.5045,79.5273 67,81.5C 68.6196,79.7585 70.1196,77.9252 71.5,76C 72.7932,75.51 74.1266,75.3433 75.5,75.5C 74.8902,76.391 74.5569,77.391 74.5,78.5C 74.5,79.1667 74.1667,79.5 73.5,79.5C 73.5654,79.0618 73.3988,78.7284 73,78.5C 71.7018,80.8157 70.2018,82.8157 68.5,84.5C 66.8333,84.5 65.1667,84.5 63.5,84.5C 63.5,81.1667 63.5,77.8333 63.5,74.5C 63.5,73.1667 63.5,71.8333 63.5,70.5 Z"/></g>
<g><path style="opacity:0.996" fill="#945824" d="M 111.5,70.5 C 111.833,70.5 112.167,70.5 112.5,70.5C 112.5,74.1667 112.5,77.8333 112.5,81.5C 106.4,81.6234 100.4,80.9568 94.5,79.5C 93.2905,79.0679 92.2905,78.4013 91.5,77.5C 93.1667,77.5 94.8333,77.5 96.5,77.5C 100.616,79.3852 104.949,79.7185 109.5,78.5C 110.374,76.2534 110.708,73.9201 110.5,71.5C 111.167,71.5 111.5,71.1667 111.5,70.5 Z"/></g>
<g><path style="opacity:0.996" fill="#764319" d="M 125.5,71.5 C 126.479,74.6248 126.813,77.9581 126.5,81.5C 130.042,81.8128 133.375,81.4794 136.5,80.5C 140.099,79.6561 143.766,79.3227 147.5,79.5C 145.309,80.8686 142.975,81.8686 140.5,82.5C 135.507,82.9157 130.507,83.2491 125.5,83.5C 125.5,79.5 125.5,75.5 125.5,71.5 Z"/></g>
<g><path style="opacity:0.996" fill="#966028" d="M 153.5,74.5 C 152.795,77.5428 150.795,79.2095 147.5,79.5C 143.766,79.3227 140.099,79.6561 136.5,80.5C 134.265,80.7947 132.265,80.4614 130.5,79.5C 132.95,79.702 135.283,79.3686 137.5,78.5C 141.733,78.4613 145.733,77.7947 149.5,76.5C 150.791,76.7373 151.791,76.404 152.5,75.5C 152.5,74.8333 152.833,74.5 153.5,74.5 Z"/></g>
<g><path style="opacity:0.972" fill="#a4663b" d="M 174.5,71.5 C 175.906,71.9731 176.573,72.9731 176.5,74.5C 176.5,78.5 176.5,82.5 176.5,86.5C 176.151,93.7259 175.151,100.726 173.5,107.5C 173.667,96.495 173.5,85.495 173,74.5C 172.722,75.4158 172.222,76.0825 171.5,76.5C 171.5,75.8333 171.5,75.1667 171.5,74.5C 172.5,73.5 173.5,72.5 174.5,71.5 Z"/></g>
<g><path style="opacity:0.996" fill="#744017" d="M 112.5,70.5 C 113.167,73.5 113.833,76.5 114.5,79.5C 114.67,80.8221 114.337,81.9887 113.5,83C 110.183,83.4983 106.85,83.665 103.5,83.5C 103.167,83.5 102.833,83.5 102.5,83.5C 99.7458,82.3586 97.0791,81.0252 94.5,79.5C 100.4,80.9568 106.4,81.6234 112.5,81.5C 112.5,77.8333 112.5,74.1667 112.5,70.5 Z"/></g>
<g><path style="opacity:0.996" fill="#48261e" d="M 123.5,70.5 C 123.665,73.5184 123.498,76.5184 123,79.5C 121.187,78.3909 120.354,79.0576 120.5,81.5C 120.167,81.5 119.833,81.5 119.5,81.5C 118.748,83.5703 118.082,86.2369 117.5,89.5C 117.158,88.6618 116.492,88.3284 115.5,88.5C 113.75,87.1302 111.75,86.1302 109.5,85.5C 108.508,85.6716 107.842,85.3382 107.5,84.5C 111.033,84.5053 114.2,85.5053 117,87.5C 117.498,84.5184 117.665,81.5184 117.5,78.5C 116.5,78.5 115.5,78.5 114.5,78.5C 114.5,78.1667 114.5,77.8333 114.5,77.5C 116.854,77.162 119.187,76.662 121.5,76C 121.167,75.6667 120.833,75.3333 120.5,75C 120.915,72.9737 121.915,71.4737 123.5,70.5 Z"/></g>
<g><path style="opacity:0.996" fill="#8c5222" d="M 125.5,64.5 C 126.047,66.4847 127.047,68.1514 128.5,69.5C 128.5,69.8333 128.5,70.1667 128.5,70.5C 128.336,73.1873 128.503,75.854 129,78.5C 129.383,79.056 129.883,79.3893 130.5,79.5C 132.265,80.4614 134.265,80.7947 136.5,80.5C 133.375,81.4794 130.042,81.8128 126.5,81.5C 126.813,77.9581 126.479,74.6248 125.5,71.5C 125.5,71.1667 125.5,70.8333 125.5,70.5C 124.65,68.7879 124.65,66.7879 125.5,64.5 Z"/></g>
<g><path style="opacity:0.996" fill="#d9c79d" d="M 84.5,79.5 C 85.6857,80.7054 85.6857,82.0387 84.5,83.5C 82.2776,83.822 80.4443,83.1554 79,81.5C 78.3292,82.2524 77.4959,82.5858 76.5,82.5C 76.4142,81.5041 76.7476,80.6708 77.5,80C 79.8098,79.5034 82.1432,79.3367 84.5,79.5 Z"/></g>
<g><path style="opacity:0.996" fill="#542b13" d="M 123.5,63.5 C 123.833,63.5 124.167,63.5 124.5,63.5C 125.167,63.5 125.5,63.8333 125.5,64.5C 124.65,66.7879 124.65,68.7879 125.5,70.5C 124.514,74.97 124.181,79.6367 124.5,84.5C 126.5,84.5 128.5,84.5 130.5,84.5C 128.371,85.2028 126.371,86.2028 124.5,87.5C 123.833,87.5 123.167,87.5 122.5,87.5C 120.692,86.0821 120.025,84.0821 120.5,81.5C 120.354,79.0576 121.187,78.3909 123,79.5C 123.498,76.5184 123.665,73.5184 123.5,70.5C 123.5,68.1667 123.5,65.8333 123.5,63.5 Z"/></g>
<g><path style="opacity:0.996" fill="#efe7cc" d="M 90.5,80.5 C 93.3973,81.129 96.064,82.129 98.5,83.5C 97.448,83.3505 96.448,83.5172 95.5,84C 96.3366,85.0113 96.67,86.1779 96.5,87.5C 98.4147,87.2155 100.081,87.5489 101.5,88.5C 98.4816,88.3354 95.4816,88.502 92.5,89C 93.056,89.3826 93.3893,89.8826 93.5,90.5C 89.8212,90.2756 86.1545,89.9422 82.5,89.5C 82.5,88.5 82.5,87.5 82.5,86.5C 86.4896,87.1901 90.4896,87.3568 94.5,87C 92.236,86.7638 90.0693,86.2638 88,85.5C 87.253,83.0722 88.0863,81.4056 90.5,80.5 Z"/></g>
<g><path style="opacity:0.996" fill="#f2eed4" d="M 149.5,81.5 C 150.833,81.5 152.167,81.5 153.5,81.5C 153.64,83.1238 152.973,84.2904 151.5,85C 148.568,85.9533 145.568,86.4533 142.5,86.5C 141.448,84.744 139.781,84.0773 137.5,84.5C 138.209,83.596 139.209,83.2627 140.5,83.5C 143.461,82.6766 146.461,82.01 149.5,81.5 Z"/></g>
<g><path style="opacity:0.996" fill="#d1bc92" d="M 84.5,83.5 C 83.8166,85.1765 82.4832,85.8432 80.5,85.5C 80.5,86.8333 80.5,88.1667 80.5,89.5C 80.1667,89.5 79.8333,89.5 79.5,89.5C 78.8333,91.5 78.1667,93.5 77.5,95.5C 77.8168,91.2984 77.4834,87.2984 76.5,83.5C 76.5,83.1667 76.5,82.8333 76.5,82.5C 77.4959,82.5858 78.3292,82.2524 79,81.5C 80.4443,83.1554 82.2776,83.822 84.5,83.5 Z"/></g>
<g><path style="opacity:0.996" fill="#f3f0da" d="M 98.5,83.5 C 99.8333,83.5 101.167,83.5 102.5,83.5C 102.833,83.5 103.167,83.5 103.5,83.5C 104.568,84.4345 105.901,84.7678 107.5,84.5C 107.842,85.3382 108.508,85.6716 109.5,85.5C 109.539,86.5832 109.873,87.5832 110.5,88.5C 109.833,88.8333 109.167,89.1667 108.5,89.5C 106.218,88.7766 103.884,88.4433 101.5,88.5C 100.081,87.5489 98.4147,87.2155 96.5,87.5C 96.67,86.1779 96.3366,85.0113 95.5,84C 96.448,83.5172 97.448,83.3505 98.5,83.5 Z"/></g>
<g><path style="opacity:0.996" fill="#5f3214" d="M 114.5,78.5 C 115.5,78.5 116.5,78.5 117.5,78.5C 117.665,81.5184 117.498,84.5184 117,87.5C 114.2,85.5053 111.033,84.5053 107.5,84.5C 105.901,84.7678 104.568,84.4345 103.5,83.5C 106.85,83.665 110.183,83.4983 113.5,83C 114.337,81.9887 114.67,80.8221 114.5,79.5C 114.5,79.1667 114.5,78.8333 114.5,78.5 Z"/></g>
<g><path style="opacity:0.996" fill="#633616" d="M 125.5,70.5 C 125.5,70.8333 125.5,71.1667 125.5,71.5C 125.5,75.5 125.5,79.5 125.5,83.5C 130.507,83.2491 135.507,82.9157 140.5,82.5C 140.5,82.8333 140.5,83.1667 140.5,83.5C 139.209,83.2627 138.209,83.596 137.5,84.5C 136.5,84.5 135.5,84.5 134.5,84.5C 133.167,84.5 131.833,84.5 130.5,84.5C 128.5,84.5 126.5,84.5 124.5,84.5C 124.181,79.6367 124.514,74.97 125.5,70.5 Z"/></g>
<g><path style="opacity:0.996" fill="#f8f7df" d="M 134.5,84.5 C 135.5,84.5 136.5,84.5 137.5,84.5C 139.781,84.0773 141.448,84.744 142.5,86.5C 140.833,87.1667 139.167,87.8333 137.5,88.5C 135.5,88.5 133.5,88.5 131.5,88.5C 131.5,87.5 131.5,86.5 131.5,85.5C 132.791,85.7373 133.791,85.404 134.5,84.5 Z"/></g>
<g><path style="opacity:0.996" fill="#dccaaa" d="M 90.5,80.5 C 88.0863,81.4056 87.253,83.0722 88,85.5C 90.0693,86.2638 92.236,86.7638 94.5,87C 90.4896,87.3568 86.4896,87.1901 82.5,86.5C 82.5,87.5 82.5,88.5 82.5,89.5C 86.1545,89.9422 89.8212,90.2756 93.5,90.5C 97.0399,90.7526 100.373,91.4192 103.5,92.5C 99.1515,92.415 94.8181,92.0816 90.5,91.5C 88.3603,91.5561 86.6936,92.2227 85.5,93.5C 84.0813,94.4511 82.4147,94.7845 80.5,94.5C 80.5,92.8333 80.5,91.1667 80.5,89.5C 80.5,88.1667 80.5,86.8333 80.5,85.5C 82.4832,85.8432 83.8166,85.1765 84.5,83.5C 85.6857,82.0387 85.6857,80.7054 84.5,79.5C 84.369,78.7611 84.5357,78.0944 85,77.5C 87.0581,78.2291 88.8914,79.2291 90.5,80.5 Z"/></g>
<g><path style="opacity:0.996" fill="#7b401a" d="M 63.5,74.5 C 63.5,77.8333 63.5,81.1667 63.5,84.5C 65.1667,84.5 66.8333,84.5 68.5,84.5C 68.5,84.8333 68.5,85.1667 68.5,85.5C 68.8229,91.69 68.4896,97.69 67.5,103.5C 67.8229,97.31 67.4896,91.31 66.5,85.5C 65.5,85.5 64.5,85.5 63.5,85.5C 63.5,91.5 63.5,97.5 63.5,103.5C 63.1667,103.5 62.8333,103.5 62.5,103.5C 62.1729,93.6522 62.5062,83.9856 63.5,74.5 Z"/></g>
<g><path style="opacity:0.996" fill="#e2d6bc" d="M 109.5,85.5 C 111.75,86.1302 113.75,87.1302 115.5,88.5C 115.64,90.1238 114.973,91.2904 113.5,92C 113.728,92.3988 114.062,92.5654 114.5,92.5C 114.119,93.9311 113.119,94.7645 111.5,95C 114.051,96.5158 113.718,97.3491 110.5,97.5C 108.901,97.7678 107.568,97.4345 106.5,96.5C 107.675,96.719 108.675,96.3857 109.5,95.5C 107.556,94.1993 105.556,93.1993 103.5,92.5C 105.288,92.7852 106.955,92.4519 108.5,91.5C 106.125,90.3395 103.792,89.3395 101.5,88.5C 103.884,88.4433 106.218,88.7766 108.5,89.5C 109.167,89.1667 109.833,88.8333 110.5,88.5C 109.873,87.5832 109.539,86.5832 109.5,85.5 Z"/></g>
<g><path style="opacity:0.996" fill="#f5f1d7" d="M 137.5,92.5 C 137.158,93.3382 136.492,93.6716 135.5,93.5C 133.631,92.8354 131.631,92.1687 129.5,91.5C 132.184,90.247 134.85,89.247 137.5,88.5C 141.755,88.4158 145.922,87.7491 150,86.5C 151.767,88.1641 151.267,89.3308 148.5,90C 144.653,90.6334 140.986,91.4667 137.5,92.5 Z"/></g>
<g><path style="opacity:0.996" fill="#e3d4b7" d="M 158.5,80.5 C 157.494,80.9377 157.494,81.6043 158.5,82.5C 157.518,85.9619 157.185,89.6286 157.5,93.5C 156.566,92.4324 156.232,91.099 156.5,89.5C 154.585,89.2155 152.919,89.5489 151.5,90.5C 146.939,91.8115 142.272,92.4781 137.5,92.5C 140.986,91.4667 144.653,90.6334 148.5,90C 151.267,89.3308 151.767,88.1641 150,86.5C 145.922,87.7491 141.755,88.4158 137.5,88.5C 139.167,87.8333 140.833,87.1667 142.5,86.5C 145.568,86.4533 148.568,85.9533 151.5,85C 152.973,84.2904 153.64,83.1238 153.5,81.5C 152.167,81.5 150.833,81.5 149.5,81.5C 152.409,79.7125 155.409,79.3792 158.5,80.5 Z"/></g>
<g><path style="opacity:0.996" fill="#c7b084" d="M 76.5,83.5 C 77.4834,87.2984 77.8168,91.2984 77.5,95.5C 77.5,96.8333 77.5,98.1667 77.5,99.5C 77.5,102.167 77.5,104.833 77.5,107.5C 76.8333,114.5 76.1667,121.5 75.5,128.5C 75.1706,113.324 75.5039,98.324 76.5,83.5 Z"/></g>
<g><path style="opacity:0.996" fill="#f8f6de" d="M 101.5,88.5 C 103.792,89.3395 106.125,90.3395 108.5,91.5C 106.955,92.4519 105.288,92.7852 103.5,92.5C 100.373,91.4192 97.0399,90.7526 93.5,90.5C 93.3893,89.8826 93.056,89.3826 92.5,89C 95.4816,88.502 98.4816,88.3354 101.5,88.5 Z"/></g>
<g><path style="opacity:0.996" fill="#d3bd97" d="M 79.5,89.5 C 79.5,98.8333 79.5,108.167 79.5,117.5C 78.8333,111.5 78.1667,105.5 77.5,99.5C 77.5,98.1667 77.5,96.8333 77.5,95.5C 78.1667,93.5 78.8333,91.5 79.5,89.5 Z"/></g>
<g><path style="opacity:0.996" fill="#e5d7b4" d="M 158.5,80.5 C 159.117,80.6107 159.617,80.944 160,81.5C 160.499,86.1548 160.666,90.8215 160.5,95.5C 159.515,99.6344 159.182,103.968 159.5,108.5C 158.596,107.791 158.263,106.791 158.5,105.5C 158.5,97.8333 158.5,90.1667 158.5,82.5C 157.494,81.6043 157.494,80.9377 158.5,80.5 Z"/></g>
<g><path style="opacity:0.996" fill="#c4873c" d="M 172.5,86.5 C 172.5,90.5 172.5,94.5 172.5,98.5C 171.12,98.0377 170.453,97.0377 170.5,95.5C 169.698,92.5514 169.364,89.5514 169.5,86.5C 170.5,86.5 171.5,86.5 172.5,86.5 Z"/></g>
<g><path style="opacity:0.996" fill="#f5f2d8" d="M 103.5,92.5 C 105.556,93.1993 107.556,94.1993 109.5,95.5C 108.675,96.3857 107.675,96.719 106.5,96.5C 99.7114,94.9436 92.7114,93.9436 85.5,93.5C 86.6936,92.2227 88.3603,91.5561 90.5,91.5C 94.8181,92.0816 99.1515,92.415 103.5,92.5 Z"/></g>
<g><path style="opacity:0.996" fill="#e1d4b8" d="M 130.5,84.5 C 131.833,84.5 133.167,84.5 134.5,84.5C 133.791,85.404 132.791,85.7373 131.5,85.5C 131.5,86.5 131.5,87.5 131.5,88.5C 133.5,88.5 135.5,88.5 137.5,88.5C 134.85,89.247 132.184,90.247 129.5,91.5C 131.631,92.1687 133.631,92.8354 135.5,93.5C 133.708,93.366 132.042,93.6993 130.5,94.5C 128.469,94.0276 126.802,93.0276 125.5,91.5C 127.85,90.8897 127.517,90.5563 124.5,90.5C 124.5,89.5 124.5,88.5 124.5,87.5C 126.371,86.2028 128.371,85.2028 130.5,84.5 Z"/></g>
<g><path style="opacity:0.996" fill="#f4f2d7" d="M 151.5,90.5 C 152.404,91.209 152.737,92.209 152.5,93.5C 145.992,94.2372 139.659,95.2372 133.5,96.5C 131.396,96.7989 129.396,96.4656 127.5,95.5C 128.325,94.6143 129.325,94.281 130.5,94.5C 132.042,93.6993 133.708,93.366 135.5,93.5C 136.492,93.6716 137.158,93.3382 137.5,92.5C 142.272,92.4781 146.939,91.8115 151.5,90.5 Z"/></g>
<g><path style="opacity:0.996" fill="#b09b79" d="M 122.5,87.5 C 123.167,87.5 123.833,87.5 124.5,87.5C 124.5,88.5 124.5,89.5 124.5,90.5C 127.517,90.5563 127.85,90.8897 125.5,91.5C 125.152,93.2399 125.152,94.9065 125.5,96.5C 126.025,97.1924 126.692,97.6924 127.5,98C 126.572,98.3879 125.905,99.0546 125.5,100C 126.615,101.235 126.615,102.402 125.5,103.5C 126.602,104.176 127.602,104.842 128.5,105.5C 127.833,105.5 127.167,105.5 126.5,105.5C 125.209,106.542 125.209,107.708 126.5,109C 125.584,109.278 124.918,109.778 124.5,110.5C 123.5,110.5 122.5,110.5 121.5,110.5C 121.825,103.313 121.491,96.3134 120.5,89.5C 121.167,88.8333 121.833,88.1667 122.5,87.5 Z"/></g>
<g><path style="opacity:0.996" fill="#e7dabb" d="M 151.5,90.5 C 152.919,89.5489 154.585,89.2155 156.5,89.5C 156.232,91.099 156.566,92.4324 157.5,93.5C 157.048,96.203 156.381,98.8697 155.5,101.5C 154.583,102.127 153.583,102.461 152.5,102.5C 152.737,101.209 152.404,100.209 151.5,99.5C 152.609,98.71 153.942,98.21 155.5,98C 154.552,97.5172 153.552,97.3505 152.5,97.5C 152.585,96.0047 151.919,95.0047 150.5,94.5C 144.947,96.0222 139.28,96.6888 133.5,96.5C 139.659,95.2372 145.992,94.2372 152.5,93.5C 152.737,92.209 152.404,91.209 151.5,90.5 Z"/></g>
<g><path style="opacity:0.996" fill="#f5f1d8" d="M 106.5,96.5 C 107.568,97.4345 108.901,97.7678 110.5,97.5C 111.85,98.8235 111.683,99.8235 110,100.5C 104.595,99.0661 99.0947,98.3994 93.5,98.5C 90.8333,98.5 88.1667,98.5 85.5,98.5C 85.5,97.5 85.5,96.5 85.5,95.5C 92.5197,95.5015 99.5197,95.8348 106.5,96.5 Z"/></g>
<g><path style="opacity:0.969" fill="#704b44" d="M 62.5,70.5 C 62.8333,70.5 63.1667,70.5 63.5,70.5C 63.5,71.8333 63.5,73.1667 63.5,74.5C 62.5062,83.9856 62.1729,93.6522 62.5,103.5C 62.5,106.167 62.5,108.833 62.5,111.5C 61.5034,128.325 61.1701,145.325 61.5,162.5C 60.5183,132.356 60.185,102.189 60.5,72C 61.0442,71.2828 61.7109,70.7828 62.5,70.5 Z"/></g>
<g><path style="opacity:0.996" fill="#f4f2d7" d="M 152.5,97.5 C 144.858,98.8877 137.191,99.221 129.5,98.5C 130.949,97.8281 132.282,97.1614 133.5,96.5C 139.28,96.6888 144.947,96.0222 150.5,94.5C 151.919,95.0047 152.585,96.0047 152.5,97.5 Z"/></g>
<g><path style="opacity:0.996" fill="#b6a080" d="M 115.5,88.5 C 116.492,88.3284 117.158,88.6618 117.5,89.5C 117.5,96.8333 117.5,104.167 117.5,111.5C 114.913,111.12 114.246,109.953 115.5,108C 115.164,106.97 114.497,106.47 113.5,106.5C 114.686,105.039 114.686,103.705 113.5,102.5C 113.937,101.628 113.937,100.461 113.5,99C 114.308,98.6924 114.975,98.1924 115.5,97.5C 115.405,95.7855 115.072,94.1188 114.5,92.5C 114.062,92.5654 113.728,92.3988 113.5,92C 114.973,91.2904 115.64,90.1238 115.5,88.5 Z"/></g>
<g><path style="opacity:0.996" fill="#dbccb0" d="M 125.5,91.5 C 126.802,93.0276 128.469,94.0276 130.5,94.5C 129.325,94.281 128.325,94.6143 127.5,95.5C 129.396,96.4656 131.396,96.7989 133.5,96.5C 132.282,97.1614 130.949,97.8281 129.5,98.5C 137.191,99.221 144.858,98.8877 152.5,97.5C 153.552,97.3505 154.552,97.5172 155.5,98C 153.942,98.21 152.609,98.71 151.5,99.5C 143.616,99.2638 135.949,100.264 128.5,102.5C 130.743,103.474 133.076,103.808 135.5,103.5C 135.5,103.833 135.5,104.167 135.5,104.5C 134.167,104.5 132.833,104.5 131.5,104.5C 130.391,104.557 129.391,104.89 128.5,105.5C 127.602,104.842 126.602,104.176 125.5,103.5C 126.615,102.402 126.615,101.235 125.5,100C 125.905,99.0546 126.572,98.3879 127.5,98C 126.692,97.6924 126.025,97.1924 125.5,96.5C 125.152,94.9065 125.152,93.2399 125.5,91.5 Z"/></g>
<g><path style="opacity:0.996" fill="#905c28" d="M 159.5,74.5 C 160.222,75.5511 161.222,76.2178 162.5,76.5C 165.39,79.0289 167.39,82.0289 168.5,85.5C 168.263,92.055 168.263,98.7216 168.5,105.5C 167.833,101.167 167.167,96.8333 166.5,92.5C 167.01,89.6122 166.344,87.2789 164.5,85.5C 164.768,83.901 164.434,82.5676 163.5,81.5C 162.083,79.1563 160.75,76.8229 159.5,74.5 Z"/></g>
<g><path style="opacity:0.996" fill="#ad6d30" d="M 172.5,86.5 C 171.5,86.5 170.5,86.5 169.5,86.5C 169.364,89.5514 169.698,92.5514 170.5,95.5C 170.453,97.0377 171.12,98.0377 172.5,98.5C 172.5,101.5 172.5,104.5 172.5,107.5C 171.732,108.263 171.232,109.263 171,110.5C 170.243,108.685 169.41,107.019 168.5,105.5C 168.263,98.7216 168.263,92.055 168.5,85.5C 169.822,85.67 170.989,85.3366 172,84.5C 172.464,85.0944 172.631,85.7611 172.5,86.5 Z"/></g>
<g><path style="opacity:0.96" fill="#985530" d="M 176.5,86.5 C 176.5,94.1667 176.5,101.833 176.5,109.5C 175.178,109.33 174.011,109.663 173,110.5C 172.517,109.552 172.351,108.552 172.5,107.5C 172.833,107.5 173.167,107.5 173.5,107.5C 175.151,100.726 176.151,93.7259 176.5,86.5 Z"/></g>
<g><path style="opacity:0.996" fill="#deceaf" d="M 85.5,93.5 C 92.7114,93.9436 99.7114,94.9436 106.5,96.5C 99.5197,95.8348 92.5197,95.5015 85.5,95.5C 85.5,96.5 85.5,97.5 85.5,98.5C 88.1667,98.5 90.8333,98.5 93.5,98.5C 93.5,98.8333 93.5,99.1667 93.5,99.5C 91.396,99.2011 89.396,99.5344 87.5,100.5C 87.8627,101.183 88.1961,101.85 88.5,102.5C 86.1432,102.337 83.8098,102.503 81.5,103C 84.146,103.497 86.8127,103.664 89.5,103.5C 89.5,104.5 89.5,105.5 89.5,106.5C 94.1785,106.334 98.8452,106.501 103.5,107C 98.1771,107.499 92.8437,107.666 87.5,107.5C 87.5,108.5 87.5,109.5 87.5,110.5C 93.1667,110.5 98.8333,110.5 104.5,110.5C 100.353,111.325 96.0195,111.825 91.5,112C 90.7476,112.671 90.4142,113.504 90.5,114.5C 87.2374,115.138 84.0707,115.138 81,114.5C 80.5004,107.842 80.3337,101.175 80.5,94.5C 82.4147,94.7845 84.0813,94.4511 85.5,93.5 Z"/></g>
<g><path style="opacity:0.996" fill="#f4efd4" d="M 93.5,99.5 C 96.3854,99.1936 99.0521,99.5269 101.5,100.5C 99.8212,100.285 98.8212,100.952 98.5,102.5C 95.1667,102.5 91.8333,102.5 88.5,102.5C 88.1961,101.85 87.8627,101.183 87.5,100.5C 89.396,99.5344 91.396,99.2011 93.5,99.5 Z"/></g>
<g><path style="opacity:0.996" fill="#f7f5dc" d="M 101.5,100.5 C 104.86,100.616 108.193,100.949 111.5,101.5C 111.5,102.5 111.5,103.5 111.5,104.5C 107.206,103.648 102.873,102.982 98.5,102.5C 98.8212,100.952 99.8212,100.285 101.5,100.5 Z"/></g>
<g><path style="opacity:0.996" fill="#daccb0" d="M 114.5,92.5 C 115.072,94.1188 115.405,95.7855 115.5,97.5C 114.975,98.1924 114.308,98.6924 113.5,99C 113.937,100.461 113.937,101.628 113.5,102.5C 113.5,103.833 112.833,104.5 111.5,104.5C 111.5,103.5 111.5,102.5 111.5,101.5C 108.193,100.949 104.86,100.616 101.5,100.5C 99.0521,99.5269 96.3854,99.1936 93.5,99.5C 93.5,99.1667 93.5,98.8333 93.5,98.5C 99.0947,98.3994 104.595,99.0661 110,100.5C 111.683,99.8235 111.85,98.8235 110.5,97.5C 113.718,97.3491 114.051,96.5158 111.5,95C 113.119,94.7645 114.119,93.9311 114.5,92.5 Z"/></g>
<g><path style="opacity:0.996" fill="#f5f1d6" d="M 151.5,99.5 C 152.404,100.209 152.737,101.209 152.5,102.5C 147.5,102.5 142.5,102.5 137.5,102.5C 136.833,102.833 136.167,103.167 135.5,103.5C 133.076,103.808 130.743,103.474 128.5,102.5C 135.949,100.264 143.616,99.2638 151.5,99.5 Z"/></g>
<g><path style="opacity:0.996" fill="#975b32" d="M 66.5,85.5 C 66.4574,93.8477 66.124,102.181 65.5,110.5C 64.8333,125.5 64.1667,140.5 63.5,155.5C 63.5,138.167 63.5,120.833 63.5,103.5C 63.5,97.5 63.5,91.5 63.5,85.5C 64.5,85.5 65.5,85.5 66.5,85.5 Z"/></g>
<g><path style="opacity:0.999" fill="#f0e7ca" d="M 137.5,102.5 C 143.31,103.49 149.31,103.823 155.5,103.5C 155.5,104.5 155.5,105.5 155.5,106.5C 153.5,106.5 151.5,106.5 149.5,106.5C 145.285,104.564 140.619,103.897 135.5,104.5C 135.5,104.167 135.5,103.833 135.5,103.5C 136.167,103.167 136.833,102.833 137.5,102.5 Z"/></g>
<g><path style="opacity:0.996" fill="#643613" d="M 164.5,85.5 C 166.344,87.2789 167.01,89.6122 166.5,92.5C 166.407,98.8627 166.74,105.196 167.5,111.5C 166.188,109.257 165.522,106.59 165.5,103.5C 165.034,97.5039 164.7,91.5039 164.5,85.5 Z"/></g>
<g><path style="opacity:0.996" fill="#f5f3d9" d="M 89.5,103.5 C 96.5988,103.341 103.599,104.008 110.5,105.5C 109.051,107.164 107.051,107.998 104.5,108C 105.448,108.483 106.448,108.649 107.5,108.5C 107.027,109.906 106.027,110.573 104.5,110.5C 98.8333,110.5 93.1667,110.5 87.5,110.5C 87.5,109.5 87.5,108.5 87.5,107.5C 92.8437,107.666 98.1771,107.499 103.5,107C 98.8452,106.501 94.1785,106.334 89.5,106.5C 89.5,105.5 89.5,104.5 89.5,103.5 Z"/></g>
<g><path style="opacity:0.996" fill="#d7c5ab" d="M 88.5,102.5 C 91.8333,102.5 95.1667,102.5 98.5,102.5C 102.873,102.982 107.206,103.648 111.5,104.5C 112.833,104.5 113.5,103.833 113.5,102.5C 114.686,103.705 114.686,105.039 113.5,106.5C 112.609,105.89 111.609,105.557 110.5,105.5C 103.599,104.008 96.5988,103.341 89.5,103.5C 86.8127,103.664 84.146,103.497 81.5,103C 83.8098,102.503 86.1432,102.337 88.5,102.5 Z"/></g>
<g><path style="opacity:0.996" fill="#f5f3d9" d="M 131.5,104.5 C 132.833,104.5 134.167,104.5 135.5,104.5C 140.619,103.897 145.285,104.564 149.5,106.5C 143.074,107.12 137.074,106.453 131.5,104.5 Z"/></g>
<g><path style="opacity:0.996" fill="#54290f" d="M 73.5,79.5 C 73.5,80.1667 73.5,80.8333 73.5,81.5C 72.596,82.209 72.2627,83.209 72.5,84.5C 71.5233,87.2869 71.19,90.2869 71.5,93.5C 70.5032,111.326 70.1699,129.326 70.5,147.5C 69.5042,133.677 69.1709,119.677 69.5,105.5C 69.824,98.6457 69.4907,91.979 68.5,85.5C 68.5,85.1667 68.5,84.8333 68.5,84.5C 70.2018,82.8157 71.7018,80.8157 73,78.5C 73.3988,78.7284 73.5654,79.0618 73.5,79.5 Z"/></g>
<g><path style="opacity:0.996" fill="#ddc9a9" d="M 158.5,82.5 C 158.5,90.1667 158.5,97.8333 158.5,105.5C 157.549,106.919 157.216,108.585 157.5,110.5C 156.9,109.1 155.9,108.1 154.5,107.5C 152.585,107.784 150.919,107.451 149.5,106.5C 151.5,106.5 153.5,106.5 155.5,106.5C 155.5,105.5 155.5,104.5 155.5,103.5C 149.31,103.823 143.31,103.49 137.5,102.5C 142.5,102.5 147.5,102.5 152.5,102.5C 153.583,102.461 154.583,102.127 155.5,101.5C 156.381,98.8697 157.048,96.203 157.5,93.5C 157.185,89.6286 157.518,85.9619 158.5,82.5 Z"/></g>
<g><path style="opacity:0.996" fill="#894b24" d="M 66.5,85.5 C 67.4896,91.31 67.8229,97.31 67.5,103.5C 67.5,105.833 67.5,108.167 67.5,110.5C 66.8333,118.167 66.1667,125.833 65.5,133.5C 65.5,125.833 65.5,118.167 65.5,110.5C 66.124,102.181 66.4574,93.8477 66.5,85.5 Z"/></g>
<g><path style="opacity:0.996" fill="#6e3915" d="M 68.5,85.5 C 69.4907,91.979 69.824,98.6457 69.5,105.5C 68.5039,120.324 68.1706,135.324 68.5,150.5C 68.1667,150.5 67.8333,150.5 67.5,150.5C 67.5,137.167 67.5,123.833 67.5,110.5C 67.5,108.167 67.5,105.833 67.5,103.5C 68.4896,97.69 68.8229,91.69 68.5,85.5 Z"/></g>
<g><path style="opacity:0.996" fill="#e6dbc0" d="M 131.5,104.5 C 137.074,106.453 143.074,107.12 149.5,106.5C 150.919,107.451 152.585,107.784 154.5,107.5C 154.5,108.833 154.5,110.167 154.5,111.5C 153.167,111.833 151.833,112.167 150.5,112.5C 150.5,111.167 150.5,109.833 150.5,108.5C 144.833,108.5 139.167,108.5 133.5,108.5C 130.841,108.083 128.508,107.083 126.5,105.5C 127.167,105.5 127.833,105.5 128.5,105.5C 129.391,104.89 130.391,104.557 131.5,104.5 Z"/></g>
<g><path style="opacity:0.996" fill="#f5f0d6" d="M 133.5,108.5 C 139.167,108.5 144.833,108.5 150.5,108.5C 150.5,109.833 150.5,111.167 150.5,112.5C 143.5,112.5 136.5,112.5 129.5,112.5C 129.5,111.167 129.5,109.833 129.5,108.5C 130.833,108.5 132.167,108.5 133.5,108.5 Z"/></g>
<g><path style="opacity:0.996" fill="#dcccad" d="M 126.5,105.5 C 128.508,107.083 130.841,108.083 133.5,108.5C 132.167,108.5 130.833,108.5 129.5,108.5C 129.5,109.833 129.5,111.167 129.5,112.5C 128.833,112.5 128.5,112.833 128.5,113.5C 127.167,113.5 125.833,113.5 124.5,113.5C 124.5,112.5 124.5,111.5 124.5,110.5C 124.918,109.778 125.584,109.278 126.5,109C 125.209,107.708 125.209,106.542 126.5,105.5 Z"/></g>
<g><path style="opacity:0.996" fill="#66341a" d="M 176.5,74.5 C 176.833,74.5 177.167,74.5 177.5,74.5C 177.203,87.8825 177.536,101.216 178.5,114.5C 177.833,114.5 177.5,114.833 177.5,115.5C 176.209,115.737 175.209,115.404 174.5,114.5C 172.771,112.273 170.438,111.273 167.5,111.5C 166.74,105.196 166.407,98.8627 166.5,92.5C 167.167,96.8333 167.833,101.167 168.5,105.5C 169.41,107.019 170.243,108.685 171,110.5C 171.232,109.263 171.732,108.263 172.5,107.5C 172.351,108.552 172.517,109.552 173,110.5C 174.011,109.663 175.178,109.33 176.5,109.5C 176.5,101.833 176.5,94.1667 176.5,86.5C 176.5,82.5 176.5,78.5 176.5,74.5 Z"/></g>
<g><path style="opacity:0.996" fill="#b9a481" d="M 121.5,110.5 C 122.5,110.5 123.5,110.5 124.5,110.5C 124.5,111.5 124.5,112.5 124.5,113.5C 125.833,113.5 127.167,113.5 128.5,113.5C 128.5,113.833 128.5,114.167 128.5,114.5C 127.5,114.5 126.5,114.5 125.5,114.5C 125.5,115.5 125.5,116.5 125.5,117.5C 129.838,117.622 130.172,117.955 126.5,118.5C 125.833,118.833 125.167,119.167 124.5,119.5C 123.976,117.694 123.309,116.028 122.5,114.5C 121.566,113.432 121.232,112.099 121.5,110.5 Z"/></g>
<g><path style="opacity:0.996" fill="#bd8666" d="M 74.5,130.5 C 73.5036,114.342 73.1702,98.0085 73.5,81.5C 73.5,80.8333 73.5,80.1667 73.5,79.5C 74.1667,79.5 74.5,79.1667 74.5,78.5C 76.8357,76.6093 79.5024,76.1093 82.5,77C 79.3873,76.9473 76.8873,78.114 75,80.5C 74.5001,97.1633 74.3334,113.83 74.5,130.5 Z"/></g>
<g><path style="opacity:0.996" fill="#f6f2d8" d="M 107.5,108.5 C 109.09,108.628 110.423,109.295 111.5,110.5C 103.567,111.513 103.567,112.513 111.5,113.5C 111.03,114.693 110.03,115.36 108.5,115.5C 102.532,114.635 96.5318,114.302 90.5,114.5C 90.4142,113.504 90.7476,112.671 91.5,112C 96.0195,111.825 100.353,111.325 104.5,110.5C 106.027,110.573 107.027,109.906 107.5,108.5 Z"/></g>
<g><path style="opacity:0.996" fill="#e2d6bb" d="M 110.5,105.5 C 111.609,105.557 112.609,105.89 113.5,106.5C 112.42,108.045 112.42,109.545 113.5,111C 112.944,112.011 112.278,112.844 111.5,113.5C 103.567,112.513 103.567,111.513 111.5,110.5C 110.423,109.295 109.09,108.628 107.5,108.5C 106.448,108.649 105.448,108.483 104.5,108C 107.051,107.998 109.051,107.164 110.5,105.5 Z"/></g>
<g><path style="opacity:0.996" fill="#c6b493" d="M 113.5,106.5 C 114.497,106.47 115.164,106.97 115.5,108C 114.246,109.953 114.913,111.12 117.5,111.5C 117.5,112.167 117.5,112.833 117.5,113.5C 115.777,114.605 114.777,116.272 114.5,118.5C 113.833,118.167 113.167,117.833 112.5,117.5C 111.508,117.672 110.842,117.338 110.5,116.5C 111.5,116.5 112.5,116.5 113.5,116.5C 113.715,114.821 113.048,113.821 111.5,113.5C 112.278,112.844 112.944,112.011 113.5,111C 112.42,109.545 112.42,108.045 113.5,106.5 Z"/></g>
<g><path style="opacity:0.996" fill="#d6c0a4" d="M 154.5,111.5 C 155.506,111.938 155.506,112.604 154.5,113.5C 146.5,113.5 138.5,113.5 130.5,113.5C 129.833,113.833 129.167,114.167 128.5,114.5C 128.5,114.167 128.5,113.833 128.5,113.5C 128.5,112.833 128.833,112.5 129.5,112.5C 136.5,112.5 143.5,112.5 150.5,112.5C 151.833,112.167 153.167,111.833 154.5,111.5 Z"/></g>
<g><path style="opacity:0.996" fill="#4e2625" d="M 163.5,81.5 C 164.434,82.5676 164.768,83.901 164.5,85.5C 164.7,91.5039 165.034,97.5039 165.5,103.5C 165.522,106.59 166.188,109.257 167.5,111.5C 167.082,112.222 166.416,112.722 165.5,113C 166.641,113.741 166.641,114.575 165.5,115.5C 166.602,116.176 167.602,116.842 168.5,117.5C 168.5,118.833 168.5,120.167 168.5,121.5C 169.833,121.5 171.167,121.5 172.5,121.5C 172.5,120.5 172.5,119.5 172.5,118.5C 174.225,118.843 174.725,119.843 174,121.5C 171.527,122.12 169.027,122.786 166.5,123.5C 166.137,124.183 165.804,124.85 165.5,125.5C 165.167,125.5 164.833,125.5 164.5,125.5C 164.167,110.833 163.833,96.1667 163.5,81.5 Z"/></g>
<g><path style="opacity:0.996" fill="#5e3523" d="M 167.5,111.5 C 170.438,111.273 172.771,112.273 174.5,114.5C 172.143,114.337 169.81,114.503 167.5,115C 169.315,115.757 170.981,116.59 172.5,117.5C 171.167,117.5 169.833,117.5 168.5,117.5C 167.602,116.842 166.602,116.176 165.5,115.5C 166.641,114.575 166.641,113.741 165.5,113C 166.416,112.722 167.082,112.222 167.5,111.5 Z"/></g>
<g><path style="opacity:0.996" fill="#f3f0d4" d="M 130.5,113.5 C 138.5,113.5 146.5,113.5 154.5,113.5C 155.338,113.842 155.672,114.508 155.5,115.5C 147.191,116.288 138.858,116.621 130.5,116.5C 130.5,115.5 130.5,114.5 130.5,113.5 Z"/></g>
<g><path style="opacity:0.996" fill="#562717" d="M 119.5,81.5 C 119.833,81.5 120.167,81.5 120.5,81.5C 120.025,84.0821 120.692,86.0821 122.5,87.5C 121.833,88.1667 121.167,88.8333 120.5,89.5C 120.5,102.167 120.5,114.833 120.5,127.5C 120.5,134.833 120.5,142.167 120.5,149.5C 120.5,151.833 120.5,154.167 120.5,156.5C 119.497,153.616 119.164,149.949 119.5,145.5C 119.5,124.167 119.5,102.833 119.5,81.5 Z"/></g>
<g><path style="opacity:0.997" fill="#decdab" d="M 158.5,105.5 C 158.263,106.791 158.596,107.791 159.5,108.5C 159.301,118.527 159.634,128.527 160.5,138.5C 159.533,139.806 158.199,140.473 156.5,140.5C 155.833,140.5 155.167,140.5 154.5,140.5C 154.557,139.391 154.89,138.391 155.5,137.5C 156.167,137.5 156.5,137.167 156.5,136.5C 157.222,136.082 157.722,135.416 158,134.5C 158.698,126.472 158.532,118.472 157.5,110.5C 157.216,108.585 157.549,106.919 158.5,105.5 Z"/></g>
<g><path style="opacity:0.996" fill="#f6f3d9" d="M 93.5,115.5 C 99.1886,115.532 104.855,115.866 110.5,116.5C 110.842,117.338 111.508,117.672 112.5,117.5C 112.5,118.5 112.5,119.5 112.5,120.5C 106.581,119.181 100.581,118.514 94.5,118.5C 94.4431,117.391 94.1098,116.391 93.5,115.5 Z"/></g>
<g><path style="opacity:0.996" fill="#ece3c4" d="M 93.5,115.5 C 94.1098,116.391 94.4431,117.391 94.5,118.5C 93.209,118.263 92.209,118.596 91.5,119.5C 89.1667,119.5 86.8333,119.5 84.5,119.5C 84.3601,117.876 85.0267,116.71 86.5,116C 88.8098,115.503 91.1432,115.337 93.5,115.5 Z"/></g>
<g><path style="opacity:0.996" fill="#dfceb2" d="M 130.5,113.5 C 130.5,114.5 130.5,115.5 130.5,116.5C 138.858,116.621 147.191,116.288 155.5,115.5C 155.5,116.167 155.5,116.833 155.5,117.5C 155.167,117.5 154.833,117.5 154.5,117.5C 146.472,117.169 138.472,117.502 130.5,118.5C 130.291,119.086 129.957,119.586 129.5,120C 133.486,120.499 137.486,120.666 141.5,120.5C 149.179,119.666 152.513,120 151.5,121.5C 144.412,121.205 137.412,121.538 130.5,122.5C 129.432,121.566 128.099,121.232 126.5,121.5C 126.5,120.5 126.5,119.5 126.5,118.5C 130.172,117.955 129.838,117.622 125.5,117.5C 125.5,116.5 125.5,115.5 125.5,114.5C 126.5,114.5 127.5,114.5 128.5,114.5C 129.167,114.167 129.833,113.833 130.5,113.5 Z"/></g>
<g><path style="opacity:0.996" fill="#f4f0d5" d="M 154.5,117.5 C 150.427,119.135 146.094,120.135 141.5,120.5C 137.486,120.666 133.486,120.499 129.5,120C 129.957,119.586 130.291,119.086 130.5,118.5C 138.472,117.502 146.472,117.169 154.5,117.5 Z"/></g>
<g><path style="opacity:0.996" fill="#e3d3b5" d="M 154.5,117.5 C 154.833,117.5 155.167,117.5 155.5,117.5C 156.809,119.571 157.475,122.071 157.5,125C 157.333,127.5 157.167,130 157,132.5C 156.329,133.252 155.496,133.586 154.5,133.5C 148.5,133.5 142.5,133.5 136.5,133.5C 135.508,133.672 134.842,133.338 134.5,132.5C 139.957,132.755 145.29,132.088 150.5,130.5C 145.544,129.506 140.544,129.173 135.5,129.5C 134.833,129.5 134.5,129.167 134.5,128.5C 141.619,128.893 148.619,128.226 155.5,126.5C 148.197,125.503 140.863,125.169 133.5,125.5C 138.985,124.673 144.652,124.173 150.5,124C 151.252,123.329 151.586,122.496 151.5,121.5C 152.513,120 149.179,119.666 141.5,120.5C 146.094,120.135 150.427,119.135 154.5,117.5 Z"/></g>
<g><path style="opacity:0.996" fill="#dfd0b5" d="M 112.5,117.5 C 113.167,117.833 113.833,118.167 114.5,118.5C 114.567,119.959 114.234,121.292 113.5,122.5C 113.715,124.179 113.048,125.179 111.5,125.5C 111.5,124.167 111.5,122.833 111.5,121.5C 107.881,120.756 104.215,120.423 100.5,120.5C 97.5,120.5 94.5,120.5 91.5,120.5C 91.5,120.167 91.5,119.833 91.5,119.5C 92.209,118.596 93.209,118.263 94.5,118.5C 100.581,118.514 106.581,119.181 112.5,120.5C 112.5,119.5 112.5,118.5 112.5,117.5 Z"/></g>
<g><path style="opacity:0.996" fill="#bda68f" d="M 120.5,89.5 C 121.491,96.3134 121.825,103.313 121.5,110.5C 121.232,112.099 121.566,113.432 122.5,114.5C 121.564,118.735 121.231,123.069 121.5,127.5C 121.167,127.5 120.833,127.5 120.5,127.5C 120.5,114.833 120.5,102.167 120.5,89.5 Z"/></g>
<g><path style="opacity:0.996" fill="#efeacc" d="M 91.5,120.5 C 94.5,120.5 97.5,120.5 100.5,120.5C 99.9002,121.9 98.9002,122.9 97.5,123.5C 95.5,123.5 93.5,123.5 91.5,123.5C 89.8333,123.5 88.1667,123.5 86.5,123.5C 86.5,122.5 86.5,121.5 86.5,120.5C 88.1667,120.5 89.8333,120.5 91.5,120.5 Z"/></g>
<g><path style="opacity:0.996" fill="#f6f3da" d="M 100.5,120.5 C 104.215,120.423 107.881,120.756 111.5,121.5C 111.5,122.833 111.5,124.167 111.5,125.5C 106.908,124.402 102.241,123.735 97.5,123.5C 98.9002,122.9 99.9002,121.9 100.5,120.5 Z"/></g>
<g><path style="opacity:0.996" fill="#a2949c" d="M 168.5,117.5 C 169.833,117.5 171.167,117.5 172.5,117.5C 172.5,117.833 172.5,118.167 172.5,118.5C 172.5,119.5 172.5,120.5 172.5,121.5C 171.167,121.5 169.833,121.5 168.5,121.5C 168.5,120.167 168.5,118.833 168.5,117.5 Z"/></g>
<g><path style="opacity:0.996" fill="#8f5936" d="M 174.5,114.5 C 175.209,115.404 176.209,115.737 177.5,115.5C 177.818,120.032 177.485,124.366 176.5,128.5C 173.038,127.518 169.371,127.185 165.5,127.5C 165.5,126.833 165.5,126.167 165.5,125.5C 165.804,124.85 166.137,124.183 166.5,123.5C 169.027,122.786 171.527,122.12 174,121.5C 174.725,119.843 174.225,118.843 172.5,118.5C 172.5,118.167 172.5,117.833 172.5,117.5C 170.981,116.59 169.315,115.757 167.5,115C 169.81,114.503 172.143,114.337 174.5,114.5 Z"/></g>
<g><path style="opacity:0.996" fill="#b19c78" d="M 122.5,114.5 C 123.309,116.028 123.976,117.694 124.5,119.5C 124.36,121.124 125.027,122.29 126.5,123C 125.027,123.71 124.36,124.876 124.5,126.5C 125.552,126.351 126.552,126.517 127.5,127C 126.027,127.71 125.36,128.876 125.5,130.5C 126.873,130.343 128.207,130.51 129.5,131C 127.273,131.704 126.94,132.871 128.5,134.5C 127.5,134.5 126.5,134.5 125.5,134.5C 125.62,131.795 124.62,131.128 122.5,132.5C 121.548,130.955 121.215,129.288 121.5,127.5C 121.231,123.069 121.564,118.735 122.5,114.5 Z"/></g>
<g><path style="opacity:0.998" fill="#f2ecd1" d="M 151.5,121.5 C 151.586,122.496 151.252,123.329 150.5,124C 144.652,124.173 138.985,124.673 133.5,125.5C 131.5,125.5 129.5,125.5 127.5,125.5C 127.5,124.5 127.5,123.5 127.5,122.5C 128.5,122.5 129.5,122.5 130.5,122.5C 137.412,121.538 144.412,121.205 151.5,121.5 Z"/></g>
<g><path style="opacity:0.996" fill="#9c7e69" d="M 73.5,81.5 C 73.1702,98.0085 73.5036,114.342 74.5,130.5C 74.5,135.5 74.5,140.5 74.5,145.5C 74.8923,147.179 75.3923,148.846 76,150.5C 78.0263,150.915 79.5263,151.915 80.5,153.5C 78.2492,154.865 76.2492,154.531 74.5,152.5C 74.2914,151.078 73.7914,149.745 73,148.5C 72.5,127.169 72.3334,105.836 72.5,84.5C 72.2627,83.209 72.596,82.209 73.5,81.5 Z"/></g>
<g><path style="opacity:0.996" fill="#ccb68a" d="M 77.5,99.5 C 78.1667,105.5 78.8333,111.5 79.5,117.5C 79.3424,120.902 79.6758,124.236 80.5,127.5C 80.5,129.5 80.5,131.5 80.5,133.5C 79.3485,131.221 78.3485,128.888 77.5,126.5C 77.5,120.167 77.5,113.833 77.5,107.5C 77.5,104.833 77.5,102.167 77.5,99.5 Z"/></g>
<g><path style="opacity:0.996" fill="#9f493c" d="M 163.5,81.5 C 163.833,96.1667 164.167,110.833 164.5,125.5C 164.784,127.415 164.451,129.081 163.5,130.5C 163.524,114.109 162.858,97.7757 161.5,81.5C 161.97,80.537 162.637,80.537 163.5,81.5 Z"/></g>
<g><path style="opacity:0.996" fill="#bba274" d="M 77.5,107.5 C 77.5,113.833 77.5,120.167 77.5,126.5C 77.5,128.833 77.5,131.167 77.5,133.5C 76.8333,134.167 76.1667,134.833 75.5,135.5C 75.5,133.167 75.5,130.833 75.5,128.5C 76.1667,121.5 76.8333,114.5 77.5,107.5 Z"/></g>
<g><path style="opacity:0.996" fill="#b9a37f" d="M 117.5,113.5 C 117.5,127.833 117.5,142.167 117.5,156.5C 116.395,155.4 115.062,154.733 113.5,154.5C 112.508,154.672 111.842,154.338 111.5,153.5C 111.5,153.167 111.5,152.833 111.5,152.5C 112.586,152.38 113.253,151.713 113.5,150.5C 113.058,149.261 112.391,148.261 111.5,147.5C 112.5,147.5 113.5,147.5 114.5,147.5C 114.714,145.856 114.38,144.356 113.5,143C 114.428,142.612 115.095,141.945 115.5,141C 114.167,139.667 114.167,138.333 115.5,137C 115.046,134.97 114.38,133.137 113.5,131.5C 114.728,129.99 114.728,128.49 113.5,127C 116.133,125.311 116.133,123.811 113.5,122.5C 114.234,121.292 114.567,119.959 114.5,118.5C 114.777,116.272 115.777,114.605 117.5,113.5 Z"/></g>
<g><path style="opacity:0.996" fill="#eee6ca" d="M 160.5,95.5 C 161.371,103.8 161.705,112.133 161.5,120.5C 161.833,127.262 161.5,133.262 160.5,138.5C 159.634,128.527 159.301,118.527 159.5,108.5C 159.182,103.968 159.515,99.6344 160.5,95.5 Z"/></g>
<g><path style="opacity:0.996" fill="#d7c4a1" d="M 79.5,89.5 C 79.8333,89.5 80.1667,89.5 80.5,89.5C 80.5,91.1667 80.5,92.8333 80.5,94.5C 80.3337,101.175 80.5004,107.842 81,114.5C 84.0707,115.138 87.2374,115.138 90.5,114.5C 96.5318,114.302 102.532,114.635 108.5,115.5C 110.03,115.36 111.03,114.693 111.5,113.5C 113.048,113.821 113.715,114.821 113.5,116.5C 112.5,116.5 111.5,116.5 110.5,116.5C 104.855,115.866 99.1886,115.532 93.5,115.5C 91.1432,115.337 88.8098,115.503 86.5,116C 85.0267,116.71 84.3601,117.876 84.5,119.5C 86.8333,119.5 89.1667,119.5 91.5,119.5C 91.5,119.833 91.5,120.167 91.5,120.5C 89.8333,120.5 88.1667,120.5 86.5,120.5C 86.5,121.5 86.5,122.5 86.5,123.5C 88.1667,123.5 89.8333,123.5 91.5,123.5C 91.5,123.833 91.5,124.167 91.5,124.5C 89.0108,124.298 86.6775,124.798 84.5,126C 85.056,126.383 85.3893,126.883 85.5,127.5C 84.1667,127.5 82.8333,127.5 81.5,127.5C 81.1667,127.5 80.8333,127.5 80.5,127.5C 79.6758,124.236 79.3424,120.902 79.5,117.5C 79.5,108.167 79.5,98.8333 79.5,89.5 Z"/></g>
<g><path style="opacity:0.996" fill="#ece3c3" d="M 91.5,124.5 C 92.5,124.5 93.5,124.5 94.5,124.5C 95.1098,125.391 95.4431,126.391 95.5,127.5C 92.1667,127.5 88.8333,127.5 85.5,127.5C 85.3893,126.883 85.056,126.383 84.5,126C 86.6775,124.798 89.0108,124.298 91.5,124.5 Z"/></g>
<g><path style="opacity:0.996" fill="#f5f1d8" d="M 94.5,124.5 C 100.552,124.731 106.552,125.398 112.5,126.5C 112.5,127.5 112.5,128.5 112.5,129.5C 111.5,129.5 110.5,129.5 109.5,129.5C 105.1,127.896 100.434,127.229 95.5,127.5C 95.4431,126.391 95.1098,125.391 94.5,124.5 Z"/></g>
<g><path style="opacity:0.996" fill="#d6c5a9" d="M 113.5,122.5 C 116.133,123.811 116.133,125.311 113.5,127C 114.728,128.49 114.728,129.99 113.5,131.5C 112.833,131.167 112.167,130.833 111.5,130.5C 110.508,130.672 109.842,130.338 109.5,129.5C 110.5,129.5 111.5,129.5 112.5,129.5C 112.5,128.5 112.5,127.5 112.5,126.5C 106.552,125.398 100.552,124.731 94.5,124.5C 93.5,124.5 92.5,124.5 91.5,124.5C 91.5,124.167 91.5,123.833 91.5,123.5C 93.5,123.5 95.5,123.5 97.5,123.5C 102.241,123.735 106.908,124.402 111.5,125.5C 113.048,125.179 113.715,124.179 113.5,122.5 Z"/></g>
<g><path style="opacity:0.997" fill="#f3eed1" d="M 133.5,125.5 C 140.863,125.169 148.197,125.503 155.5,126.5C 148.619,128.226 141.619,128.893 134.5,128.5C 132.973,128.573 131.973,127.906 131.5,126.5C 132.492,126.672 133.158,126.338 133.5,125.5 Z"/></g>
<g><path style="opacity:0.996" fill="#7d3f23" d="M 65.5,110.5 C 65.5,118.167 65.5,125.833 65.5,133.5C 65.5,141.167 65.5,148.833 65.5,156.5C 65.1047,162.016 67.438,165.683 72.5,167.5C 77.9753,168.489 83.642,168.822 89.5,168.5C 91.1667,168.5 92.8333,168.5 94.5,168.5C 94.5,168.833 94.5,169.167 94.5,169.5C 86.1122,169.773 77.7788,169.44 69.5,168.5C 66.5479,167.641 64.7146,165.641 64,162.5C 63.5034,160.19 63.3367,157.857 63.5,155.5C 64.1667,140.5 64.8333,125.5 65.5,110.5 Z"/></g>
<g><path style="opacity:0.996" fill="#82451c" d="M 67.5,110.5 C 67.5,123.833 67.5,137.167 67.5,150.5C 67.5,152.167 67.5,153.833 67.5,155.5C 66.8333,155.833 66.1667,156.167 65.5,156.5C 65.5,148.833 65.5,141.167 65.5,133.5C 66.1667,125.833 66.8333,118.167 67.5,110.5 Z"/></g>
<g><path style="opacity:0.996" fill="#2c100e" d="M 72.5,84.5 C 72.3334,105.836 72.5,127.169 73,148.5C 73.7914,149.745 74.2914,151.078 74.5,152.5C 73.0755,150.969 72.4088,151.302 72.5,153.5C 71.5029,133.674 71.1695,113.674 71.5,93.5C 71.19,90.2869 71.5233,87.2869 72.5,84.5 Z"/></g>
<g><path style="opacity:0.996" fill="#6d3313" d="M 62.5,103.5 C 62.8333,103.5 63.1667,103.5 63.5,103.5C 63.5,120.833 63.5,138.167 63.5,155.5C 63.3367,157.857 63.5034,160.19 64,162.5C 64.7146,165.641 66.5479,167.641 69.5,168.5C 70.8774,170.127 72.2107,171.794 73.5,173.5C 71.5,172.833 69.5,172.167 67.5,171.5C 65.7587,169.023 64.2587,166.356 63,163.5C 62.5001,146.17 62.3334,128.837 62.5,111.5C 62.5,108.833 62.5,106.167 62.5,103.5 Z"/></g>
<g><path style="opacity:0.996" fill="#d1bd98" d="M 80.5,127.5 C 80.8333,127.5 81.1667,127.5 81.5,127.5C 83.2646,128.461 85.2646,128.795 87.5,128.5C 83.7194,130.651 84.3861,131.651 89.5,131.5C 88.791,132.404 87.791,132.737 86.5,132.5C 86.5,133.5 86.5,134.5 86.5,135.5C 84.1137,135.741 82.1137,135.075 80.5,133.5C 80.5,131.5 80.5,129.5 80.5,127.5 Z"/></g>
<g><path style="opacity:0.996" fill="#d3bda2" d="M 81.5,127.5 C 82.8333,127.5 84.1667,127.5 85.5,127.5C 88.8333,127.5 92.1667,127.5 95.5,127.5C 100.434,127.229 105.1,127.896 109.5,129.5C 102.191,128.752 94.8578,128.418 87.5,128.5C 85.2646,128.795 83.2646,128.461 81.5,127.5 Z"/></g>
<g><path style="opacity:0.996" fill="#d4c4a3" d="M 126.5,118.5 C 126.5,119.5 126.5,120.5 126.5,121.5C 128.099,121.232 129.432,121.566 130.5,122.5C 129.5,122.5 128.5,122.5 127.5,122.5C 127.5,123.5 127.5,124.5 127.5,125.5C 129.5,125.5 131.5,125.5 133.5,125.5C 133.158,126.338 132.492,126.672 131.5,126.5C 129.952,126.821 129.285,127.821 129.5,129.5C 133.838,129.622 134.172,129.955 130.5,130.5C 130.5,131.5 130.5,132.5 130.5,133.5C 129.833,133.833 129.167,134.167 128.5,134.5C 126.94,132.871 127.273,131.704 129.5,131C 128.207,130.51 126.873,130.343 125.5,130.5C 125.36,128.876 126.027,127.71 127.5,127C 126.552,126.517 125.552,126.351 124.5,126.5C 124.36,124.876 125.027,123.71 126.5,123C 125.027,122.29 124.36,121.124 124.5,119.5C 125.167,119.167 125.833,118.833 126.5,118.5 Z"/></g>
<g><path style="opacity:0.996" fill="#f2edd0" d="M 87.5,128.5 C 94.8578,128.418 102.191,128.752 109.5,129.5C 109.842,130.338 110.508,130.672 111.5,130.5C 111.209,131.649 110.376,132.316 109,132.5C 102.534,131.6 96.0345,131.267 89.5,131.5C 84.3861,131.651 83.7194,130.651 87.5,128.5 Z"/></g>
<g><path style="opacity:0.998" fill="#f2eccf" d="M 135.5,129.5 C 140.544,129.173 145.544,129.506 150.5,130.5C 145.29,132.088 139.957,132.755 134.5,132.5C 134.557,131.391 134.89,130.391 135.5,129.5 Z"/></g>
<g><path style="opacity:0.996" fill="#e4d4b3" d="M 154.5,107.5 C 155.9,108.1 156.9,109.1 157.5,110.5C 158.532,118.472 158.698,126.472 158,134.5C 157.722,135.416 157.222,136.082 156.5,136.5C 155.833,136.5 155.167,136.5 154.5,136.5C 154.5,135.5 154.5,134.5 154.5,133.5C 155.496,133.586 156.329,133.252 157,132.5C 157.167,130 157.333,127.5 157.5,125C 157.475,122.071 156.809,119.571 155.5,117.5C 155.5,116.833 155.5,116.167 155.5,115.5C 155.672,114.508 155.338,113.842 154.5,113.5C 155.506,112.604 155.506,111.938 154.5,111.5C 154.5,110.167 154.5,108.833 154.5,107.5 Z"/></g>
<g><path style="opacity:0.996" fill="#30150d" d="M 165.5,127.5 C 169.371,127.185 173.038,127.518 176.5,128.5C 176.5,129.167 176.5,129.833 176.5,130.5C 173.198,131.294 169.865,131.96 166.5,132.5C 166.5,137.5 166.5,142.5 166.5,147.5C 166.167,147.5 165.833,147.5 165.5,147.5C 165.5,146.833 165.5,146.167 165.5,145.5C 165.5,139.5 165.5,133.5 165.5,127.5 Z"/></g>
<g><path style="opacity:0.996" fill="#f1eace" d="M 111.5,134.5 C 111.209,135.649 110.376,136.316 109,136.5C 106.538,135.841 104.038,135.507 101.5,135.5C 98.1667,135.5 94.8333,135.5 91.5,135.5C 91.5,134.5 91.5,133.5 91.5,132.5C 98.3112,132.202 104.978,132.869 111.5,134.5 Z"/></g>
<g><path style="opacity:0.996" fill="#dfcfb3" d="M 111.5,130.5 C 112.167,130.833 112.833,131.167 113.5,131.5C 113.218,132.778 112.551,133.778 111.5,134.5C 104.978,132.869 98.3112,132.202 91.5,132.5C 91.5,133.5 91.5,134.5 91.5,135.5C 89.8333,135.5 88.1667,135.5 86.5,135.5C 86.5,134.5 86.5,133.5 86.5,132.5C 87.791,132.737 88.791,132.404 89.5,131.5C 96.0345,131.267 102.534,131.6 109,132.5C 110.376,132.316 111.209,131.649 111.5,130.5 Z"/></g>
<g><path style="opacity:0.996" fill="#cab696" d="M 113.5,131.5 C 114.38,133.137 115.046,134.97 115.5,137C 114.167,138.333 114.167,139.667 115.5,141C 115.095,141.945 114.428,142.612 113.5,143C 114.38,144.356 114.714,145.856 114.5,147.5C 113.5,147.5 112.5,147.5 111.5,147.5C 107.96,147.247 104.627,146.581 101.5,145.5C 102.167,145.5 102.5,145.167 102.5,144.5C 105.728,145.546 109.061,146.212 112.5,146.5C 112.5,145.167 112.5,143.833 112.5,142.5C 109.933,142.279 107.599,141.612 105.5,140.5C 108.206,140.575 110.873,140.908 113.5,141.5C 113.64,139.876 112.973,138.71 111.5,138C 114.125,136.624 114.125,135.458 111.5,134.5C 112.551,133.778 113.218,132.778 113.5,131.5 Z"/></g>
<g><path style="opacity:0.996" fill="#eee6c8" d="M 136.5,133.5 C 142.5,133.5 148.5,133.5 154.5,133.5C 154.5,134.5 154.5,135.5 154.5,136.5C 148.833,136.5 143.167,136.5 137.5,136.5C 136.89,135.609 136.557,134.609 136.5,133.5 Z"/></g>
<g><path style="opacity:0.996" fill="#e9dfc0" d="M 131.5,126.5 C 131.973,127.906 132.973,128.573 134.5,128.5C 134.5,129.167 134.833,129.5 135.5,129.5C 134.89,130.391 134.557,131.391 134.5,132.5C 134.842,133.338 135.508,133.672 136.5,133.5C 136.557,134.609 136.89,135.609 137.5,136.5C 135.181,137.167 132.847,137.334 130.5,137C 130.167,136.667 129.833,136.333 129.5,136C 130.623,134.956 131.956,134.29 133.5,134C 132.552,133.517 131.552,133.351 130.5,133.5C 130.5,132.5 130.5,131.5 130.5,130.5C 134.172,129.955 133.838,129.622 129.5,129.5C 129.285,127.821 129.952,126.821 131.5,126.5 Z"/></g>
<g><path style="opacity:0.996" fill="#ccb590" d="M 80.5,133.5 C 82.1137,135.075 84.1137,135.741 86.5,135.5C 88.1667,135.5 89.8333,135.5 91.5,135.5C 94.8333,135.5 98.1667,135.5 101.5,135.5C 101.158,136.338 100.492,136.672 99.5,136.5C 95.8183,136.335 92.1516,136.501 88.5,137C 88.9574,137.414 89.2907,137.914 89.5,138.5C 93.4454,139.491 97.4454,139.824 101.5,139.5C 102.167,139.5 102.833,139.5 103.5,139.5C 98.6946,140.487 93.6946,140.821 88.5,140.5C 88.5,141.833 88.5,143.167 88.5,144.5C 87.448,144.649 86.448,144.483 85.5,144C 84.2744,142.365 82.941,140.865 81.5,139.5C 80.5344,137.604 80.2011,135.604 80.5,133.5 Z"/></g>
<g><path style="opacity:0.996" fill="#eae0c2" d="M 111.5,134.5 C 114.125,135.458 114.125,136.624 111.5,138C 112.973,138.71 113.64,139.876 113.5,141.5C 110.873,140.908 108.206,140.575 105.5,140.5C 105.158,139.662 104.492,139.328 103.5,139.5C 102.833,139.5 102.167,139.5 101.5,139.5C 100.833,138.5 100.167,137.5 99.5,136.5C 100.492,136.672 101.158,136.338 101.5,135.5C 104.038,135.507 106.538,135.841 109,136.5C 110.376,136.316 111.209,135.649 111.5,134.5 Z"/></g>
<g><path style="opacity:0.996" fill="#663924" d="M 119.5,81.5 C 119.5,102.833 119.5,124.167 119.5,145.5C 118.833,149.167 118.167,152.833 117.5,156.5C 117.5,142.167 117.5,127.833 117.5,113.5C 117.5,112.833 117.5,112.167 117.5,111.5C 117.5,104.167 117.5,96.8333 117.5,89.5C 118.082,86.2369 118.748,83.5703 119.5,81.5 Z"/></g>
<g><path style="opacity:0.996" fill="#4c250e" d="M 176.5,130.5 C 176.5,131.5 176.5,132.5 176.5,133.5C 175.508,133.328 174.842,133.662 174.5,134.5C 173.305,134.322 172.138,133.989 171,133.5C 169.251,133.748 168.418,134.748 168.5,136.5C 167.833,141.833 167.167,147.167 166.5,152.5C 166.5,150.833 166.5,149.167 166.5,147.5C 166.5,142.5 166.5,137.5 166.5,132.5C 169.865,131.96 173.198,131.294 176.5,130.5 Z"/></g>
<g><path style="opacity:0.996" fill="#e9dfbe" d="M 99.5,136.5 C 100.167,137.5 100.833,138.5 101.5,139.5C 97.4454,139.824 93.4454,139.491 89.5,138.5C 89.2907,137.914 88.9574,137.414 88.5,137C 92.1516,136.501 95.8183,136.335 99.5,136.5 Z"/></g>
<g><path style="opacity:0.996" fill="#a68e6f" d="M 120.5,127.5 C 120.833,127.5 121.167,127.5 121.5,127.5C 121.215,129.288 121.548,130.955 122.5,132.5C 124.62,131.128 125.62,131.795 125.5,134.5C 126.5,134.5 127.5,134.5 128.5,134.5C 127.833,135.167 127.167,135.833 126.5,136.5C 123.875,137.458 123.875,138.624 126.5,140C 125.906,140.464 125.239,140.631 124.5,140.5C 123.504,140.414 122.671,140.748 122,141.5C 121.817,144.365 121.317,147.031 120.5,149.5C 120.5,142.167 120.5,134.833 120.5,127.5 Z"/></g>
<g><path style="opacity:0.996" fill="#d2bd9e" d="M 130.5,133.5 C 131.552,133.351 132.552,133.517 133.5,134C 131.956,134.29 130.623,134.956 129.5,136C 129.833,136.333 130.167,136.667 130.5,137C 132.847,137.334 135.181,137.167 137.5,136.5C 143.167,136.5 148.833,136.5 154.5,136.5C 155.167,136.5 155.833,136.5 156.5,136.5C 156.5,137.167 156.167,137.5 155.5,137.5C 154.833,137.5 154.167,137.5 153.5,137.5C 148.5,137.5 143.5,137.5 138.5,137.5C 135.904,138.265 133.237,138.599 130.5,138.5C 128.517,138.843 127.183,138.176 126.5,136.5C 127.167,135.833 127.833,135.167 128.5,134.5C 129.167,134.167 129.833,133.833 130.5,133.5 Z"/></g>
<g><path style="opacity:0.996" fill="#864435" d="M 164.5,125.5 C 164.833,125.5 165.167,125.5 165.5,125.5C 165.5,126.167 165.5,126.833 165.5,127.5C 165.5,133.5 165.5,139.5 165.5,145.5C 165.167,145.5 164.833,145.5 164.5,145.5C 164.802,142.941 164.468,140.607 163.5,138.5C 163.167,138.5 162.833,138.5 162.5,138.5C 162.5,135.833 162.5,133.167 162.5,130.5C 162.833,130.5 163.167,130.5 163.5,130.5C 164.451,129.081 164.784,127.415 164.5,125.5 Z"/></g>
<g><path style="opacity:0.996" fill="#864322" d="M 172.5,136.5 C 172.833,136.5 173.167,136.5 173.5,136.5C 172.874,143.584 173.541,150.25 175.5,156.5C 175.5,158.5 175.5,160.5 175.5,162.5C 174.03,164.151 172.697,165.985 171.5,168C 169.086,169.885 166.419,170.552 163.5,170C 164.737,169.768 165.737,169.268 166.5,168.5C 168.139,167.527 169.473,166.194 170.5,164.5C 170.987,163.527 171.487,162.527 172,161.5C 172.5,153.173 172.666,144.84 172.5,136.5 Z"/></g>
<g><path style="opacity:0.945" fill="#4e2418" d="M 62.5,111.5 C 62.3334,128.837 62.5001,146.17 63,163.5C 64.2587,166.356 65.7587,169.023 67.5,171.5C 63.791,169.777 61.791,166.777 61.5,162.5C 61.1701,145.325 61.5034,128.325 62.5,111.5 Z"/></g>
<g><path style="opacity:0.996" fill="#e5d8b7" d="M 138.5,137.5 C 138.389,138.117 138.056,138.617 137.5,139C 142.5,139.667 147.5,139.667 152.5,139C 153.056,138.617 153.389,138.117 153.5,137.5C 154.167,137.5 154.833,137.5 155.5,137.5C 154.89,138.391 154.557,139.391 154.5,140.5C 147.137,140.274 139.804,140.607 132.5,141.5C 130.645,141.66 129.312,140.993 128.5,139.5C 129.492,139.672 130.158,139.338 130.5,138.5C 133.237,138.599 135.904,138.265 138.5,137.5 Z"/></g>
<g><path style="opacity:0.998" fill="#ece1c1" d="M 138.5,137.5 C 143.5,137.5 148.5,137.5 153.5,137.5C 153.389,138.117 153.056,138.617 152.5,139C 147.5,139.667 142.5,139.667 137.5,139C 138.056,138.617 138.389,138.117 138.5,137.5 Z"/></g>
<g><path style="opacity:0.97" fill="#78391e" d="M 174.5,134.5 C 174.842,133.662 175.508,133.328 176.5,133.5C 176.827,143.348 176.494,153.014 175.5,162.5C 175.5,160.5 175.5,158.5 175.5,156.5C 175.825,148.981 175.492,141.648 174.5,134.5 Z"/></g>
<g><path style="opacity:0.393" fill="#3d2324" d="M 178.5,114.5 C 177.652,127.07 177.652,139.57 178.5,152C 177.7,156.08 177.2,160.247 177,164.5C 176.576,167.025 175.41,169.025 173.5,170.5C 172.833,170.5 172.167,170.5 171.5,170.5C 173.891,168.385 175.224,165.719 175.5,162.5C 176.494,153.014 176.827,143.348 176.5,133.5C 176.5,132.5 176.5,131.5 176.5,130.5C 176.5,129.833 176.5,129.167 176.5,128.5C 177.485,124.366 177.818,120.032 177.5,115.5C 177.5,114.833 177.833,114.5 178.5,114.5 Z"/></g>
<g><path style="opacity:0.996" fill="#b79e6f" d="M 77.5,133.5 C 78.6021,137.473 79.9354,141.473 81.5,145.5C 80.1851,144.524 78.8518,143.524 77.5,142.5C 76.5713,143.689 76.238,145.022 76.5,146.5C 75.8333,146.5 75.5,146.167 75.5,145.5C 75.5,142.167 75.5,138.833 75.5,135.5C 76.1667,134.833 76.8333,134.167 77.5,133.5 Z"/></g>
<g><path style="opacity:0.996" fill="#c0a77d" d="M 77.5,126.5 C 78.3485,128.888 79.3485,131.221 80.5,133.5C 80.2011,135.604 80.5344,137.604 81.5,139.5C 82.941,140.865 84.2744,142.365 85.5,144C 86.448,144.483 87.448,144.649 88.5,144.5C 93.1667,144.5 97.8333,144.5 102.5,144.5C 102.5,145.167 102.167,145.5 101.5,145.5C 98.8333,145.5 96.1667,145.5 93.5,145.5C 89.8333,145.5 86.1667,145.5 82.5,145.5C 82.1667,145.5 81.8333,145.5 81.5,145.5C 79.9354,141.473 78.6021,137.473 77.5,133.5C 77.5,131.167 77.5,128.833 77.5,126.5 Z"/></g>
<g><path style="opacity:0.996" fill="#cbb091" d="M 128.5,139.5 C 129.312,140.993 130.645,141.66 132.5,141.5C 139.804,140.607 147.137,140.274 154.5,140.5C 155.167,140.5 155.833,140.5 156.5,140.5C 156.158,141.338 155.492,141.672 154.5,141.5C 146.35,141.062 138.35,141.729 130.5,143.5C 129.391,142.71 128.058,142.21 126.5,142C 127.066,141.005 127.733,140.172 128.5,139.5 Z"/></g>
<g><path style="opacity:0.996" fill="#d9c8a3" d="M 161.5,120.5 C 162.479,123.625 162.813,126.958 162.5,130.5C 162.5,133.167 162.5,135.833 162.5,138.5C 162.662,140.527 162.495,142.527 162,144.5C 160.4,142.453 158.567,142.453 156.5,144.5C 154.585,144.784 152.919,144.451 151.5,143.5C 152.873,143.657 154.207,143.49 155.5,143C 154.944,142.617 154.611,142.117 154.5,141.5C 155.492,141.672 156.158,141.338 156.5,140.5C 158.199,140.473 159.533,139.806 160.5,138.5C 161.5,133.262 161.833,127.262 161.5,120.5 Z"/></g>
<g><path style="opacity:0.996" fill="#633412" d="M 168.5,136.5 C 168.666,142.842 168.5,149.175 168,155.5C 166.629,158.266 164.796,160.599 162.5,162.5C 161.5,162.5 160.5,162.5 159.5,162.5C 163.781,160.628 166.114,157.295 166.5,152.5C 167.167,147.167 167.833,141.833 168.5,136.5 Z"/></g>
<g><path style="opacity:0.996" fill="#b8a580" d="M 126.5,136.5 C 127.183,138.176 128.517,138.843 130.5,138.5C 130.158,139.338 129.492,139.672 128.5,139.5C 127.733,140.172 127.066,141.005 126.5,142C 128.058,142.21 129.391,142.71 130.5,143.5C 129.167,144.167 129.167,144.833 130.5,145.5C 130.5,145.833 130.5,146.167 130.5,146.5C 128.517,146.843 127.183,146.176 126.5,144.5C 127.067,143.58 126.401,143.246 124.5,143.5C 124.5,142.5 124.5,141.5 124.5,140.5C 125.239,140.631 125.906,140.464 126.5,140C 123.875,138.624 123.875,137.458 126.5,136.5 Z"/></g>
<g><path style="opacity:0.996" fill="#dfd4b0" d="M 154.5,141.5 C 154.611,142.117 154.944,142.617 155.5,143C 154.207,143.49 152.873,143.657 151.5,143.5C 144.493,144.101 137.493,144.767 130.5,145.5C 129.167,144.833 129.167,144.167 130.5,143.5C 138.35,141.729 146.35,141.062 154.5,141.5 Z"/></g>
<g><path style="opacity:0.996" fill="#ccb78f" d="M 162.5,138.5 C 162.833,138.5 163.167,138.5 163.5,138.5C 163.664,141.187 163.497,143.854 163,146.5C 162.722,147.416 162.222,148.082 161.5,148.5C 161.631,147.761 161.464,147.094 161,146.5C 159.211,148.229 157.044,148.896 154.5,148.5C 154.918,147.778 155.584,147.278 156.5,147C 155.944,146.617 155.611,146.117 155.5,145.5C 156.167,145.5 156.5,145.167 156.5,144.5C 158.567,142.453 160.4,142.453 162,144.5C 162.495,142.527 162.662,140.527 162.5,138.5 Z"/></g>
<g><path style="opacity:0.996" fill="#9e572f" d="M 174.5,134.5 C 175.492,141.648 175.825,148.981 175.5,156.5C 173.541,150.25 172.874,143.584 173.5,136.5C 174.338,136.158 174.672,135.492 174.5,134.5 Z"/></g>
<g><path style="opacity:0.996" fill="#e3d6b5" d="M 103.5,139.5 C 104.492,139.328 105.158,139.662 105.5,140.5C 107.599,141.612 109.933,142.279 112.5,142.5C 112.5,143.833 112.5,145.167 112.5,146.5C 109.061,146.212 105.728,145.546 102.5,144.5C 97.8333,144.5 93.1667,144.5 88.5,144.5C 88.5,143.167 88.5,141.833 88.5,140.5C 93.6946,140.821 98.6946,140.487 103.5,139.5 Z"/></g>
<g><path style="opacity:0.996" fill="#cdb38f" d="M 151.5,143.5 C 152.919,144.451 154.585,144.784 156.5,144.5C 156.5,145.167 156.167,145.5 155.5,145.5C 147.018,145.05 138.685,145.717 130.5,147.5C 130.5,147.167 130.5,146.833 130.5,146.5C 130.5,146.167 130.5,145.833 130.5,145.5C 137.493,144.767 144.493,144.101 151.5,143.5 Z"/></g>
<g><path style="opacity:0.996" fill="#ac9364" d="M 81.5,145.5 C 81.8333,145.5 82.1667,145.5 82.5,145.5C 83.347,146.966 84.6803,147.8 86.5,148C 85.5842,148.278 84.9175,148.778 84.5,149.5C 82.4727,149.662 80.4727,149.495 78.5,149C 77.244,148.583 76.5774,147.75 76.5,146.5C 76.238,145.022 76.5713,143.689 77.5,142.5C 78.8518,143.524 80.1851,144.524 81.5,145.5 Z"/></g>
<g><path style="opacity:0.996" fill="#bea87c" d="M 82.5,145.5 C 86.1667,145.5 89.8333,145.5 93.5,145.5C 95.5498,148.123 98.2165,149.79 101.5,150.5C 98.1667,150.5 94.8333,150.5 91.5,150.5C 89.3926,149.532 87.0593,149.198 84.5,149.5C 84.9175,148.778 85.5842,148.278 86.5,148C 84.6803,147.8 83.347,146.966 82.5,145.5 Z"/></g>
<g><path style="opacity:0.996" fill="#99815c" d="M 124.5,140.5 C 124.5,141.5 124.5,142.5 124.5,143.5C 126.401,143.246 127.067,143.58 126.5,144.5C 123.713,146.205 124.046,147.372 127.5,148C 125.422,149.27 125.088,150.77 126.5,152.5C 125.833,153.167 125.167,153.833 124.5,154.5C 122.938,154.733 121.605,155.4 120.5,156.5C 120.5,154.167 120.5,151.833 120.5,149.5C 121.317,147.031 121.817,144.365 122,141.5C 122.671,140.748 123.504,140.414 124.5,140.5 Z"/></g>
<g><path style="opacity:0.997" fill="#d4c399" d="M 155.5,145.5 C 155.611,146.117 155.944,146.617 156.5,147C 155.584,147.278 154.918,147.778 154.5,148.5C 146.764,148.45 139.097,149.117 131.5,150.5C 130.733,149.828 130.066,148.995 129.5,148C 129.728,147.601 130.062,147.435 130.5,147.5C 138.685,145.717 147.018,145.05 155.5,145.5 Z"/></g>
<g><path style="opacity:0.996" fill="#7d441d" d="M 174.5,134.5 C 174.672,135.492 174.338,136.158 173.5,136.5C 173.167,136.5 172.833,136.5 172.5,136.5C 170.628,143.099 169.628,150.099 169.5,157.5C 166.791,160.208 164.458,163.208 162.5,166.5C 161.5,166.167 160.833,165.5 160.5,164.5C 161.167,163.833 161.833,163.167 162.5,162.5C 164.796,160.599 166.629,158.266 168,155.5C 168.5,149.175 168.666,142.842 168.5,136.5C 168.418,134.748 169.251,133.748 171,133.5C 172.138,133.989 173.305,134.322 174.5,134.5 Z"/></g>
<g><path style="opacity:0.996" fill="#b39f75" d="M 126.5,144.5 C 127.183,146.176 128.517,146.843 130.5,146.5C 130.5,146.833 130.5,147.167 130.5,147.5C 130.062,147.435 129.728,147.601 129.5,148C 130.066,148.995 130.733,149.828 131.5,150.5C 130.07,151.537 128.403,152.204 126.5,152.5C 125.088,150.77 125.422,149.27 127.5,148C 124.046,147.372 123.713,146.205 126.5,144.5 Z"/></g>
<g><path style="opacity:0.996" fill="#9f7e51" d="M 161.5,148.5 C 160.942,149.79 159.942,150.623 158.5,151C 151.833,151.333 145.167,151.667 138.5,152C 135.203,152.204 132.203,153.037 129.5,154.5C 127.784,154.629 126.117,154.962 124.5,155.5C 124.5,155.167 124.5,154.833 124.5,154.5C 125.167,153.833 125.833,153.167 126.5,152.5C 128.403,152.204 130.07,151.537 131.5,150.5C 139.097,149.117 146.764,148.45 154.5,148.5C 157.044,148.896 159.211,148.229 161,146.5C 161.464,147.094 161.631,147.761 161.5,148.5 Z"/></g>
<g><path style="opacity:0.996" fill="#d8c9a5" d="M 93.5,145.5 C 96.1667,145.5 98.8333,145.5 101.5,145.5C 104.627,146.581 107.96,147.247 111.5,147.5C 112.391,148.261 113.058,149.261 113.5,150.5C 113.253,151.713 112.586,152.38 111.5,152.5C 108.302,151.213 104.969,150.547 101.5,150.5C 98.2165,149.79 95.5498,148.123 93.5,145.5 Z"/></g>
<g><path style="opacity:0.996" fill="#553c26" d="M 74.5,145.5 C 74.8333,145.5 75.1667,145.5 75.5,145.5C 75.5,146.167 75.8333,146.5 76.5,146.5C 76.5774,147.75 77.244,148.583 78.5,149C 80.4727,149.495 82.4727,149.662 84.5,149.5C 87.0593,149.198 89.3926,149.532 91.5,150.5C 87.6707,149.931 84.3373,150.598 81.5,152.5C 81.6716,153.492 81.3382,154.158 80.5,154.5C 80.5,154.167 80.5,153.833 80.5,153.5C 79.5263,151.915 78.0263,150.915 76,150.5C 75.3923,148.846 74.8923,147.179 74.5,145.5 Z"/></g>
<g><path style="opacity:0.996" fill="#673a1b" d="M 119.5,145.5 C 119.164,149.949 119.497,153.616 120.5,156.5C 121.605,155.4 122.938,154.733 124.5,154.5C 124.5,154.833 124.5,155.167 124.5,155.5C 120.433,161.025 116.766,160.691 113.5,154.5C 115.062,154.733 116.395,155.4 117.5,156.5C 118.167,152.833 118.833,149.167 119.5,145.5 Z"/></g>
<g><path style="opacity:0.996" fill="#3f2c2d" d="M 91.5,150.5 C 94.8333,150.5 98.1667,150.5 101.5,150.5C 102.609,151.29 103.942,151.79 105.5,152C 97.5069,152.5 89.5069,152.666 81.5,152.5C 84.3373,150.598 87.6707,149.931 91.5,150.5 Z"/></g>
<g><path style="opacity:0.996" fill="#40241f" d="M 163.5,138.5 C 164.468,140.607 164.802,142.941 164.5,145.5C 164.201,148.642 162.534,150.809 159.5,152C 152.987,152.172 146.653,152.672 140.5,153.5C 136.802,153.552 133.135,153.886 129.5,154.5C 132.203,153.037 135.203,152.204 138.5,152C 145.167,151.667 151.833,151.333 158.5,151C 159.942,150.623 160.942,149.79 161.5,148.5C 162.222,148.082 162.722,147.416 163,146.5C 163.497,143.854 163.664,141.187 163.5,138.5 Z"/></g>
<g><path style="opacity:0.996" fill="#745d4d" d="M 164.5,145.5 C 164.833,145.5 165.167,145.5 165.5,145.5C 165.5,146.167 165.5,146.833 165.5,147.5C 164.615,153.269 161.282,156.269 155.5,156.5C 154.167,156.5 152.833,156.5 151.5,156.5C 153.562,155.224 155.896,154.39 158.5,154C 154.514,153.501 150.514,153.334 146.5,153.5C 144.5,153.5 142.5,153.5 140.5,153.5C 146.653,152.672 152.987,152.172 159.5,152C 162.534,150.809 164.201,148.642 164.5,145.5 Z"/></g>
<g><path style="opacity:0.996" fill="#65504a" d="M 101.5,150.5 C 104.969,150.547 108.302,151.213 111.5,152.5C 111.5,152.833 111.5,153.167 111.5,153.5C 110.448,153.351 109.448,153.517 108.5,154C 112.008,155.012 114.342,157.178 115.5,160.5C 114.609,161.11 113.609,161.443 112.5,161.5C 112.5,161.167 112.5,160.833 112.5,160.5C 113.773,159.923 113.773,159.257 112.5,158.5C 109.356,156.591 106.023,155.258 102.5,154.5C 96.013,153.346 89.3464,153.179 82.5,154C 83.4158,154.278 84.0825,154.778 84.5,155.5C 82.901,155.768 81.5676,155.434 80.5,154.5C 81.3382,154.158 81.6716,153.492 81.5,152.5C 89.5069,152.666 97.5069,152.5 105.5,152C 103.942,151.79 102.609,151.29 101.5,150.5 Z"/></g>
<g><path style="opacity:0.996" fill="#baafa2" d="M 102.5,154.5 C 106.023,155.258 109.356,156.591 112.5,158.5C 113.773,159.257 113.773,159.923 112.5,160.5C 109.454,159.938 106.454,159.271 103.5,158.5C 101.91,156.766 99.9096,155.6 97.5,155C 99.1341,154.506 100.801,154.34 102.5,154.5 Z"/></g>
<g><path style="opacity:0.996" fill="#9d8f83" d="M 102.5,154.5 C 100.801,154.34 99.1341,154.506 97.5,155C 99.9096,155.6 101.91,156.766 103.5,158.5C 99.5341,157.838 95.5341,157.505 91.5,157.5C 89.1667,156.833 86.8333,156.167 84.5,155.5C 84.0825,154.778 83.4158,154.278 82.5,154C 89.3464,153.179 96.013,153.346 102.5,154.5 Z"/></g>
<g><path style="opacity:0.996" fill="#b4a799" d="M 137.5,155.5 C 139.199,155.34 140.866,155.506 142.5,156C 140.942,156.21 139.609,156.71 138.5,157.5C 137.791,158.404 136.791,158.737 135.5,158.5C 133.565,159.15 131.565,159.483 129.5,159.5C 128.448,159.649 127.448,159.483 126.5,159C 129.86,156.936 133.526,155.769 137.5,155.5 Z"/></g>
<g><path style="opacity:0.996" fill="#a09183" d="M 146.5,153.5 C 150.514,153.334 154.514,153.501 158.5,154C 155.896,154.39 153.562,155.224 151.5,156.5C 147.19,157.08 142.857,157.414 138.5,157.5C 139.609,156.71 140.942,156.21 142.5,156C 140.866,155.506 139.199,155.34 137.5,155.5C 140.5,154.833 143.5,154.167 146.5,153.5 Z"/></g>
<g><path style="opacity:0.996" fill="#24121b" d="M 74.5,152.5 C 76.2492,154.531 78.2492,154.865 80.5,153.5C 80.5,153.833 80.5,154.167 80.5,154.5C 81.5676,155.434 82.901,155.768 84.5,155.5C 86.8333,156.167 89.1667,156.833 91.5,157.5C 89.4727,157.338 87.4727,157.505 85.5,158C 88.3102,158.782 90.9768,159.616 93.5,160.5C 91.1667,160.5 88.8333,160.5 86.5,160.5C 83.2856,159.718 79.9523,158.885 76.5,158C 74.3909,157.093 73.0576,155.593 72.5,153.5C 72.4088,151.302 73.0755,150.969 74.5,152.5 Z"/></g>
<g><path style="opacity:0.996" fill="#73625b" d="M 140.5,153.5 C 142.5,153.5 144.5,153.5 146.5,153.5C 143.5,154.167 140.5,154.833 137.5,155.5C 133.526,155.769 129.86,156.936 126.5,159C 127.448,159.483 128.448,159.649 129.5,159.5C 128.5,160.167 127.5,160.833 126.5,161.5C 125.209,161.737 124.209,161.404 123.5,160.5C 124.64,157.605 126.64,155.605 129.5,154.5C 133.135,153.886 136.802,153.552 140.5,153.5 Z"/></g>
<g><path style="opacity:0.996" fill="#321c2c" d="M 165.5,147.5 C 165.833,147.5 166.167,147.5 166.5,147.5C 166.5,149.167 166.5,150.833 166.5,152.5C 165.867,155.134 164.2,156.8 161.5,157.5C 154.857,158.554 148.19,159.054 141.5,159C 146.336,158.32 151.003,157.486 155.5,156.5C 161.282,156.269 164.615,153.269 165.5,147.5 Z"/></g>
<g><path style="opacity:0.996" fill="#3f1d08" d="M 71.5,93.5 C 71.1695,113.674 71.5029,133.674 72.5,153.5C 73.0576,155.593 74.3909,157.093 76.5,158C 79.9523,158.885 83.2856,159.718 86.5,160.5C 87.8333,161.167 89.1667,161.833 90.5,162.5C 85.5082,162.001 80.5082,161.501 75.5,161C 71.0827,157.57 69.4161,153.07 70.5,147.5C 70.1699,129.326 70.5032,111.326 71.5,93.5 Z"/></g>
<g><path style="opacity:0.996" fill="#5a2c0f" d="M 69.5,105.5 C 69.1709,119.677 69.5042,133.677 70.5,147.5C 69.4161,153.07 71.0827,157.57 75.5,161C 80.5082,161.501 85.5082,162.001 90.5,162.5C 91.1667,162.5 91.5,162.833 91.5,163.5C 86.4932,163.249 81.4932,162.916 76.5,162.5C 70.8598,160.569 68.1931,156.569 68.5,150.5C 68.1706,135.324 68.5039,120.324 69.5,105.5 Z"/></g>
<g><path style="opacity:0.996" fill="#2a1726" d="M 91.5,157.5 C 95.5341,157.505 99.5341,157.838 103.5,158.5C 101.833,159.167 100.167,159.833 98.5,160.5C 96.8333,160.5 95.1667,160.5 93.5,160.5C 90.9768,159.616 88.3102,158.782 85.5,158C 87.4727,157.505 89.4727,157.338 91.5,157.5 Z"/></g>
<g><path style="opacity:0.996" fill="#25121a" d="M 151.5,156.5 C 152.833,156.5 154.167,156.5 155.5,156.5C 151.003,157.486 146.336,158.32 141.5,159C 148.19,159.054 154.857,158.554 161.5,157.5C 160.07,158.537 158.403,159.204 156.5,159.5C 151.178,159.98 145.845,160.313 140.5,160.5C 138.833,159.833 137.167,159.167 135.5,158.5C 136.791,158.737 137.791,158.404 138.5,157.5C 142.857,157.414 147.19,157.08 151.5,156.5 Z"/></g>
<g><path style="opacity:0.996" fill="#341f30" d="M 103.5,158.5 C 106.454,159.271 109.454,159.938 112.5,160.5C 112.5,160.833 112.5,161.167 112.5,161.5C 112.918,162.222 113.584,162.722 114.5,163C 109.207,162.285 103.874,161.452 98.5,160.5C 100.167,159.833 101.833,159.167 103.5,158.5 Z"/></g>
<g><path style="opacity:0.996" fill="#4f3938" d="M 111.5,153.5 C 111.842,154.338 112.508,154.672 113.5,154.5C 116.766,160.691 120.433,161.025 124.5,155.5C 126.117,154.962 127.784,154.629 129.5,154.5C 126.64,155.605 124.64,157.605 123.5,160.5C 122.287,161.575 120.787,162.241 119,162.5C 117.319,162.392 116.152,161.725 115.5,160.5C 114.342,157.178 112.008,155.012 108.5,154C 109.448,153.517 110.448,153.351 111.5,153.5 Z"/></g>
<g><path style="opacity:0.996" fill="#311604" d="M 86.5,160.5 C 88.8333,160.5 91.1667,160.5 93.5,160.5C 99.028,162.34 104.695,164.006 110.5,165.5C 110.5,166.167 110.5,166.833 110.5,167.5C 109.833,167.5 109.167,167.5 108.5,167.5C 103.323,164.562 97.6566,163.229 91.5,163.5C 91.5,162.833 91.1667,162.5 90.5,162.5C 89.1667,161.833 87.8333,161.167 86.5,160.5 Z"/></g>
<g><path style="opacity:0.996" fill="#200d0d" d="M 93.5,160.5 C 95.1667,160.5 96.8333,160.5 98.5,160.5C 103.874,161.452 109.207,162.285 114.5,163C 113.584,162.722 112.918,162.222 112.5,161.5C 113.609,161.443 114.609,161.11 115.5,160.5C 116.152,161.725 117.319,162.392 119,162.5C 120.787,162.241 122.287,161.575 123.5,160.5C 124.209,161.404 125.209,161.737 126.5,161.5C 126.082,162.222 125.416,162.722 124.5,163C 124.728,163.399 125.062,163.565 125.5,163.5C 125.158,164.338 124.492,164.672 123.5,164.5C 120.833,163.167 118.167,163.167 115.5,164.5C 114.778,164.918 114.278,165.584 114,166.5C 112.989,165.663 111.822,165.33 110.5,165.5C 104.695,164.006 99.028,162.34 93.5,160.5 Z"/></g>
<g><path style="opacity:0.996" fill="#a85f2a" d="M 172.5,136.5 C 172.666,144.84 172.5,153.173 172,161.5C 171.487,162.527 170.987,163.527 170.5,164.5C 169.503,164.53 168.836,164.03 168.5,163C 169.233,161.234 169.567,159.401 169.5,157.5C 169.628,150.099 170.628,143.099 172.5,136.5 Z"/></g>
<g><path style="opacity:0.996" fill="#9b5422" d="M 67.5,155.5 C 68.4097,158.992 70.0764,161.992 72.5,164.5C 72.5774,165.75 73.244,166.583 74.5,167C 73.9056,167.464 73.2389,167.631 72.5,167.5C 67.438,165.683 65.1047,162.016 65.5,156.5C 66.1667,156.167 66.8333,155.833 67.5,155.5 Z"/></g>
<g><path style="opacity:0.996" fill="#362032" d="M 135.5,158.5 C 137.167,159.167 138.833,159.833 140.5,160.5C 138.958,161.301 137.292,161.634 135.5,161.5C 132.031,161.547 128.698,162.213 125.5,163.5C 125.062,163.565 124.728,163.399 124.5,163C 125.416,162.722 126.082,162.222 126.5,161.5C 127.5,160.833 128.5,160.167 129.5,159.5C 131.565,159.483 133.565,159.15 135.5,158.5 Z"/></g>
<g><path style="opacity:0.996" fill="#7a4119" d="M 67.5,150.5 C 67.8333,150.5 68.1667,150.5 68.5,150.5C 68.1931,156.569 70.8598,160.569 76.5,162.5C 79.8871,163.288 83.2204,164.288 86.5,165.5C 83.8333,165.5 81.1667,165.5 78.5,165.5C 76.3792,165.675 74.3792,165.341 72.5,164.5C 70.0764,161.992 68.4097,158.992 67.5,155.5C 67.5,153.833 67.5,152.167 67.5,150.5 Z"/></g>
<g><path style="opacity:0.996" fill="#2e1304" d="M 156.5,159.5 C 149.72,161.123 143.053,163.123 136.5,165.5C 130.463,164.877 127.129,167.543 126.5,173.5C 126.5,173.833 126.5,174.167 126.5,174.5C 125.167,174.5 123.833,174.5 122.5,174.5C 122.338,172.473 122.505,170.473 123,168.5C 126.739,165.219 130.905,162.885 135.5,161.5C 137.292,161.634 138.958,161.301 140.5,160.5C 145.845,160.313 151.178,159.98 156.5,159.5 Z"/></g>
<g><path style="opacity:0.996" fill="#441f09" d="M 166.5,152.5 C 166.114,157.295 163.781,160.628 159.5,162.5C 155.303,162.429 151.137,162.763 147,163.5C 145.319,163.608 144.152,164.275 143.5,165.5C 142.833,165.5 142.167,165.5 141.5,165.5C 139.833,165.5 138.167,165.5 136.5,165.5C 143.053,163.123 149.72,161.123 156.5,159.5C 158.403,159.204 160.07,158.537 161.5,157.5C 164.2,156.8 165.867,155.134 166.5,152.5 Z"/></g>
<g><path style="opacity:0.996" fill="#6c3719" d="M 159.5,162.5 C 160.5,162.5 161.5,162.5 162.5,162.5C 161.833,163.167 161.167,163.833 160.5,164.5C 157.587,165.24 154.753,166.24 152,167.5C 149.694,166.841 147.527,166.841 145.5,167.5C 145.5,166.167 144.833,165.5 143.5,165.5C 144.152,164.275 145.319,163.608 147,163.5C 151.137,162.763 155.303,162.429 159.5,162.5 Z"/></g>
<g><path style="opacity:0.996" fill="#a15825" d="M 169.5,157.5 C 169.567,159.401 169.233,161.234 168.5,163C 168.836,164.03 169.503,164.53 170.5,164.5C 169.473,166.194 168.139,167.527 166.5,168.5C 164.801,168.473 163.467,167.806 162.5,166.5C 164.458,163.208 166.791,160.208 169.5,157.5 Z"/></g>
<g><path style="opacity:0.996" fill="#59271c" d="M 123.5,164.5 C 123.5,166.5 122.5,167.5 120.5,167.5C 118.833,167.5 117.167,167.5 115.5,167.5C 115.5,166.5 115.5,165.5 115.5,164.5C 118.167,163.167 120.833,163.167 123.5,164.5 Z"/></g>
<g><path style="opacity:0.996" fill="#975421" d="M 72.5,164.5 C 74.3792,165.341 76.3792,165.675 78.5,165.5C 82.231,166.225 85.8977,167.225 89.5,168.5C 83.642,168.822 77.9753,168.489 72.5,167.5C 73.2389,167.631 73.9056,167.464 74.5,167C 73.244,166.583 72.5774,165.75 72.5,164.5 Z"/></g>
<g><path style="opacity:0.996" fill="#5c2d12" d="M 76.5,162.5 C 81.4932,162.916 86.4932,163.249 91.5,163.5C 96.0204,164.719 100.687,165.885 105.5,167C 107.457,168.746 108.457,170.912 108.5,173.5C 108.5,173.833 108.5,174.167 108.5,174.5C 97.3206,174.828 86.3206,174.495 75.5,173.5C 80.8333,173.5 86.1667,173.5 91.5,173.5C 94.5,173.5 97.5,173.5 100.5,173.5C 100.5,172.167 100.5,170.833 100.5,169.5C 98.8333,169.5 97.1667,169.5 95.5,169.5C 95.1667,169.5 94.8333,169.5 94.5,169.5C 94.5,169.167 94.5,168.833 94.5,168.5C 96.5273,168.662 98.5273,168.495 100.5,168C 96.0445,166.385 91.3779,165.551 86.5,165.5C 83.2204,164.288 79.8871,163.288 76.5,162.5 Z"/></g>
<g><path style="opacity:0.996" fill="#220d04" d="M 115.5,164.5 C 115.5,165.5 115.5,166.5 115.5,167.5C 117.167,167.5 118.833,167.5 120.5,167.5C 119.432,168.434 118.099,168.768 116.5,168.5C 116.5,169.5 116.5,170.5 116.5,171.5C 113.763,171.141 111.763,169.807 110.5,167.5C 110.5,166.833 110.5,166.167 110.5,165.5C 111.822,165.33 112.989,165.663 114,166.5C 114.278,165.584 114.778,164.918 115.5,164.5 Z"/></g>
<g><path style="opacity:0.996" fill="#1a0809" d="M 135.5,161.5 C 130.905,162.885 126.739,165.219 123,168.5C 122.505,170.473 122.338,172.473 122.5,174.5C 120.551,175.725 119.218,175.058 118.5,172.5C 117.702,172.957 117.369,173.624 117.5,174.5C 117.167,174.5 116.833,174.5 116.5,174.5C 116.5,173.5 116.5,172.5 116.5,171.5C 116.5,170.5 116.5,169.5 116.5,168.5C 118.099,168.768 119.432,168.434 120.5,167.5C 122.5,167.5 123.5,166.5 123.5,164.5C 124.492,164.672 125.158,164.338 125.5,163.5C 128.698,162.213 132.031,161.547 135.5,161.5 Z"/></g>
<g><path style="opacity:0.996" fill="#b49e7f" d="M 160.5,164.5 C 160.833,165.5 161.5,166.167 162.5,166.5C 162.747,168.858 162.081,170.858 160.5,172.5C 158.142,172.747 156.142,172.081 154.5,170.5C 152.49,169.307 150.324,169.307 148,170.5C 146.251,170.252 145.418,169.252 145.5,167.5C 147.527,166.841 149.694,166.841 152,167.5C 154.753,166.24 157.587,165.24 160.5,164.5 Z"/></g>
<g><path style="opacity:0.996" fill="#82441a" d="M 78.5,165.5 C 81.1667,165.5 83.8333,165.5 86.5,165.5C 91.3779,165.551 96.0445,166.385 100.5,168C 98.5273,168.495 96.5273,168.662 94.5,168.5C 92.8333,168.5 91.1667,168.5 89.5,168.5C 85.8977,167.225 82.231,166.225 78.5,165.5 Z"/></g>
<g><path style="opacity:0.996" fill="#834b2c" d="M 156.5,166.5 C 157.833,166.5 159.167,166.5 160.5,166.5C 160.5,167.833 160.5,169.167 160.5,170.5C 159.167,170.5 157.833,170.5 156.5,170.5C 156.5,169.167 156.5,167.833 156.5,166.5 Z"/></g>
<g><path style="opacity:0.996" fill="#46200b" d="M 91.5,163.5 C 97.6566,163.229 103.323,164.562 108.5,167.5C 111.015,169.682 111.015,171.682 108.5,173.5C 108.457,170.912 107.457,168.746 105.5,167C 100.687,165.885 96.0204,164.719 91.5,163.5 Z"/></g>
<g><path style="opacity:0.996" fill="#925526" d="M 69.5,168.5 C 77.7788,169.44 86.1122,169.773 94.5,169.5C 94.8333,169.5 95.1667,169.5 95.5,169.5C 93.8608,170.473 92.5274,171.806 91.5,173.5C 86.1667,173.5 80.8333,173.5 75.5,173.5C 74.8333,173.5 74.1667,173.5 73.5,173.5C 72.2107,171.794 70.8774,170.127 69.5,168.5 Z"/></g>
<g><path style="opacity:0.996" fill="#884d21" d="M 95.5,169.5 C 97.1667,169.5 98.8333,169.5 100.5,169.5C 100.5,170.833 100.5,172.167 100.5,173.5C 97.5,173.5 94.5,173.5 91.5,173.5C 92.5274,171.806 93.8608,170.473 95.5,169.5 Z"/></g>
<g><path style="opacity:0.996" fill="#331407" d="M 108.5,167.5 C 109.167,167.5 109.833,167.5 110.5,167.5C 111.763,169.807 113.763,171.141 116.5,171.5C 116.5,172.5 116.5,173.5 116.5,174.5C 113.833,174.5 111.167,174.5 108.5,174.5C 108.5,174.167 108.5,173.833 108.5,173.5C 111.015,171.682 111.015,169.682 108.5,167.5 Z"/></g>
<g><path style="opacity:0.996" fill="#4b220c" d="M 136.5,165.5 C 132.642,166.7 130.642,169.367 130.5,173.5C 129.167,173.5 127.833,173.5 126.5,173.5C 127.129,167.543 130.463,164.877 136.5,165.5 Z"/></g>
<g><path style="opacity:0.996" fill="#7d401a" d="M 141.5,165.5 C 142.167,165.5 142.833,165.5 143.5,165.5C 144.833,165.5 145.5,166.167 145.5,167.5C 144.539,169.265 144.205,171.265 144.5,173.5C 141.5,173.5 138.5,173.5 135.5,173.5C 134.374,172.142 134.374,170.808 135.5,169.5C 137.256,167.634 139.256,166.301 141.5,165.5 Z"/></g>
<g><path style="opacity:0.996" fill="#733918" d="M 175.5,162.5 C 175.224,165.719 173.891,168.385 171.5,170.5C 169.249,171.695 166.915,172.695 164.5,173.5C 162.901,173.768 161.568,173.434 160.5,172.5C 162.081,170.858 162.747,168.858 162.5,166.5C 163.467,167.806 164.801,168.473 166.5,168.5C 165.737,169.268 164.737,169.768 163.5,170C 166.419,170.552 169.086,169.885 171.5,168C 172.697,165.985 174.03,164.151 175.5,162.5 Z"/></g>
<g><path style="opacity:0.996" fill="#663011" d="M 136.5,165.5 C 138.167,165.5 139.833,165.5 141.5,165.5C 139.256,166.301 137.256,167.634 135.5,169.5C 134.374,170.808 134.374,172.142 135.5,173.5C 133.833,173.5 132.167,173.5 130.5,173.5C 130.642,169.367 132.642,166.7 136.5,165.5 Z"/></g>
<g><path style="opacity:0.996" fill="#562a10" d="M 145.5,167.5 C 145.418,169.252 146.251,170.252 148,170.5C 150.324,169.307 152.49,169.307 154.5,170.5C 154.414,171.496 154.748,172.329 155.5,173C 151.848,173.499 148.182,173.665 144.5,173.5C 144.205,171.265 144.539,169.265 145.5,167.5 Z"/></g>
<g><path style="opacity:0.92" fill="#3a170d" d="M 154.5,170.5 C 156.142,172.081 158.142,172.747 160.5,172.5C 161.568,173.434 162.901,173.768 164.5,173.5C 155.682,174.493 146.682,174.827 137.5,174.5C 133.833,174.5 130.167,174.5 126.5,174.5C 126.5,174.167 126.5,173.833 126.5,173.5C 127.833,173.5 129.167,173.5 130.5,173.5C 132.167,173.5 133.833,173.5 135.5,173.5C 138.5,173.5 141.5,173.5 144.5,173.5C 148.182,173.665 151.848,173.499 155.5,173C 154.748,172.329 154.414,171.496 154.5,170.5 Z"/></g>
<g><path style="opacity:0.037" fill="#291c1c" d="M 67.5,171.5 C 69.5,172.167 71.5,172.833 73.5,173.5C 74.1667,173.5 74.8333,173.5 75.5,173.5C 86.3206,174.495 97.3206,174.828 108.5,174.5C 111.167,174.5 113.833,174.5 116.5,174.5C 116.833,174.5 117.167,174.5 117.5,174.5C 117.5,175.167 117.5,175.833 117.5,176.5C 102.908,175.683 88.241,175.183 73.5,175C 70.9746,174.576 68.9746,173.41 67.5,171.5 Z"/></g>
<g><path style="opacity:0.039" fill="#2f272b" d="M 122.5,174.5 C 123.833,174.5 125.167,174.5 126.5,174.5C 130.167,174.5 133.833,174.5 137.5,174.5C 137.5,174.833 137.5,175.167 137.5,175.5C 131.271,174.978 125.271,175.644 119.5,177.5C 118.584,177.457 117.917,177.124 117.5,176.5C 117.5,175.833 117.5,175.167 117.5,174.5C 117.369,173.624 117.702,172.957 118.5,172.5C 119.218,175.058 120.551,175.725 122.5,174.5 Z"/></g>
<g><path style="opacity:0.118" fill="#423432" d="M 171.5,170.5 C 172.167,170.5 172.833,170.5 173.5,170.5C 171.351,172.746 168.684,174.246 165.5,175C 156.173,175.5 146.839,175.666 137.5,175.5C 137.5,175.167 137.5,174.833 137.5,174.5C 146.682,174.827 155.682,174.493 164.5,173.5C 166.915,172.695 169.249,171.695 171.5,170.5 Z"/></g>
</svg>
